# Blender 4.0.0
# www.blender.org
o Bridge.001
v 10.041853 2.159466 -1.952976
v 10.159505 -2.959377 -2.458803
v 10.041853 2.837856 -1.952976
v 10.041853 2.157892 -2.405884
v 5.020910 2.792199 -1.952977
v 0.000000 3.152718 -1.952977
v 5.020910 3.470588 -1.952977
v 0.000000 3.831107 -1.952977
v -10.041853 2.159466 -1.952976
v 5.020910 3.474747 -2.400113
v 0.000000 3.151061 -2.396824
v -10.159505 -2.853855 -2.458803
v 3.021294 -2.959830 -2.244569
v 3.533321 -2.959378 -2.458803
v -10.041853 2.837856 -1.952976
v -10.041853 2.157892 -2.405884
v -5.020909 2.792199 -1.952977
v -5.020909 3.470588 -1.952977
v 0.000000 2.412795 -2.409800
v 0.000000 1.813851 -2.244569
v -5.020909 2.790572 -2.400113
v 10.041853 2.159466 1.952973
v 10.159505 -2.959377 2.458800
v 10.041853 2.837856 1.952973
v 10.041853 2.157892 2.405880
v 2.329454 0.415788 -2.244569
v 5.020910 2.792199 1.952973
v 0.000000 3.152718 1.952974
v 2.701178 0.838416 -2.424161
v 5.020910 3.470588 1.952973
v 0.000000 3.831107 1.952974
v -10.041853 2.159466 1.952973
v 5.020910 3.474747 2.400109
v 0.000000 3.151061 2.396820
v -10.159505 -2.853855 2.458800
v 3.021294 -2.959830 2.244565
v 3.533321 -2.959378 2.458800
v -10.041853 2.837856 1.952973
v -10.041853 2.157892 2.405880
v -5.020909 2.792199 1.952973
v -5.020909 3.470588 1.952973
v 0.000000 2.412795 2.409796
v 0.000000 1.813851 2.244565
v -5.020909 2.790572 2.400109
v 2.329454 0.415788 2.244565
v 2.701178 0.838416 2.424157
v 1.096813 1.584129 2.244565
v 1.338833 2.126999 2.412403
v 1.096813 1.584129 -2.244569
v -3.021294 -2.853855 2.244565
v -3.533321 -2.853855 2.458800
v -2.329454 0.415788 2.244565
v -2.701177 0.838416 2.424157
v -1.096813 1.584129 2.244565
v -1.338832 2.126999 2.412403
v 1.338833 2.126999 -2.412406
v -3.021294 -2.853855 -2.244569
v -3.533321 -2.853855 -2.458803
v -2.329454 0.415788 -2.244569
v -2.701177 0.838416 -2.424161
v -1.096813 1.584129 -2.244569
v -1.338832 2.126999 -2.412406
v 0.674312 2.554942 2.612988
v 0.332862 1.500366 2.624074
v 0.332863 1.493585 1.979089
v 0.674313 2.548162 1.968002
v -0.332865 1.493585 1.979089
v -0.674315 2.548162 1.968002
v -0.332865 1.500366 2.624074
v -0.674315 2.554942 2.612988
v 2.329454 0.415788 1.601664
v 0.000000 1.813851 1.601664
v -2.329454 0.415788 1.601664
v 10.041853 2.842067 2.405880
v 5.020910 2.790572 2.400109
v 0.000000 3.835236 2.396820
v -10.041853 2.842067 2.405880
v -5.020909 3.474747 2.400109
v 0.674312 2.554942 -2.612991
v 0.332862 1.500366 -2.624078
v 0.332863 1.493585 -1.979092
v 0.674313 2.548162 -1.968006
v -0.332865 1.493585 -1.979092
v -0.674315 2.548162 -1.968006
v -0.332865 1.500366 -2.624078
v -0.674315 2.554942 -2.612991
v 10.041853 2.842067 -2.405884
v 5.020910 2.790572 -2.400113
v 0.000000 3.835236 -2.396824
v -10.041853 2.842067 -2.405884
v -5.020909 3.474747 -2.400113
v 3.021295 -2.959830 1.601665
v -3.021294 -2.853855 1.601664
v 1.096813 1.584129 1.601664
v -1.096813 1.584129 1.601664
v 2.329454 0.415788 -1.601668
v 3.021295 -2.959830 -1.601668
v 1.096813 1.584129 -1.601668
v 0.000000 1.813851 -1.601668
v -1.096813 1.584129 -1.601668
v -3.021294 -2.853855 -1.601668
v -2.329454 0.415788 -1.601668
vn -0.0000 -0.2687 -0.9632
vn 0.1347 -0.2404 -0.9613
vn 0.1288 -0.2426 -0.9615
vn -0.0000 -0.0000 1.0000
vn 0.3066 -0.1342 -0.9423
vn 0.2715 -0.1624 -0.9487
vn -0.9997 0.0235 -0.0000
vn -0.9999 0.0156 -0.0000
vn -0.9088 0.0107 -0.4171
vn 0.0008 0.0107 -0.9999
vn 0.0009 0.0147 -0.9999
vn -0.0000 0.0161 -0.9999
vn -0.0984 0.9952 -0.0000
vn -0.0000 1.0000 -0.0000
vn 0.0006 0.0101 -0.9999
vn 0.0019 0.0101 -0.9999
vn 0.9997 0.0230 -0.0000
vn 0.9088 0.0105 -0.4171
vn 0.9999 0.0153 -0.0000
vn 0.4640 -0.8858 -0.0000
vn -0.0000 -1.0000 -0.0000
vn -0.4640 -0.8858 -0.0000
vn -0.1347 -0.2404 -0.9613
vn -0.1288 -0.2426 -0.9615
vn -0.2716 -0.1618 -0.9487
vn -0.3073 -0.1329 -0.9423
vn -0.3756 -0.0753 -0.9237
vn -0.0984 0.9951 0.0093
vn -0.0000 1.0000 0.0093
vn -0.0018 0.0102 -0.9999
vn -0.0008 0.0108 -0.9999
vn -0.0009 0.0147 -0.9999
vn 0.3747 -0.0774 -0.9239
vn -0.0001 0.0105 0.9999
vn -0.0006 0.0103 0.9999
vn -0.0008 0.0108 0.9999
vn 0.6686 0.4803 0.5677
vn 0.4725 -0.6558 0.5888
vn 0.4725 -0.6433 -0.6024
vn 0.6686 0.4922 -0.5575
vn -0.8741 -0.4857 -0.0000
vn 0.0001 0.0103 0.9999
vn 0.0008 0.0107 0.9999
vn 0.0006 0.0101 0.9999
vn -0.0018 0.0102 0.9999
vn -0.0984 0.9951 -0.0093
vn -0.0000 1.0000 -0.0093
vn -0.9796 -0.2008 -0.0000
vn 0.9088 0.0105 0.4171
vn 0.6768 -0.0000 0.7361
vn 1.0000 -0.0000 -0.0000
vn 0.1250 0.9921 -0.0092
vn 0.0984 0.9951 -0.0093
vn -0.9088 0.0107 0.4171
vn -0.1250 0.9921 0.0092
vn 0.0019 0.0101 0.9999
vn 0.0009 0.0147 0.9999
vn -0.0000 -0.0000 -1.0000
vn -0.0009 0.0147 0.9999
vn -0.1250 0.9921 -0.0092
vn -0.0000 -0.2687 0.9632
vn -0.1347 -0.2404 0.9613
vn -0.1288 -0.2426 0.9615
vn -0.3073 -0.1329 0.9423
vn -0.2716 -0.1618 0.9487
vn -0.3756 -0.0753 0.9237
vn 0.1250 0.9921 0.0092
vn 0.0984 0.9951 0.0093
vn -0.0000 0.0161 0.9999
vn 0.1288 -0.2426 0.9615
vn 0.1347 -0.2404 0.9613
vn 0.2715 -0.1624 0.9487
vn 0.3066 -0.1342 0.9423
vn 0.3747 -0.0774 0.9239
vn 0.8726 -0.4885 -0.0000
vn -0.1250 0.9922 -0.0000
vn 0.6768 -0.0000 -0.7361
vn 0.0001 -1.0000 -0.0000
vn 0.0984 0.9952 -0.0000
vn 0.0001 0.0103 -0.9999
vn 0.1250 0.9922 -0.0000
vn -0.0006 0.0103 -0.9999
vn -0.4725 -0.6433 -0.6024
vn -0.6686 0.4922 -0.5575
vn -0.4725 -0.6558 0.5888
vn -0.6686 0.4803 0.5677
vn -0.0001 0.0105 -0.9999
vn 0.4725 -0.6433 0.6024
vn 0.6686 0.4922 0.5575
vn -0.6686 0.4922 0.5575
vn -0.4725 -0.6433 0.6024
vn -0.4725 -0.6558 -0.5888
vn -0.6686 0.4803 -0.5677
vn 0.4725 -0.6558 -0.5888
vn 0.6686 0.4803 -0.5677
vn 0.9783 -0.2070 -0.0000
vn -0.0009 -0.0000 1.0000
vn -0.6768 -0.0000 0.7361
vn 0.0009 -0.0000 1.0000
vn -1.0000 -0.0000 -0.0000
vn -0.0009 -0.0000 -1.0000
vn -0.6768 -0.0000 -0.7361
vn 0.0009 -0.0000 -1.0000
vn -0.0009 1.0000 -0.0000
vt 0.502922 0.057105
vt 0.919319 0.057105
vt 0.919319 0.000591
vt 0.502922 0.000591
vt 1.227194 0.124882
vt 2.352469 0.124534
vt 2.352469 0.077528
vt 1.241909 0.078127
vt 1.669086 0.057105
vt 1.669086 0.000591
vt 0.074721 0.373314
vt 0.772456 0.428070
vt 0.772456 0.380674
vt 0.972654 0.999596
vt 0.600350 0.818797
vt 0.458686 0.846664
vt 0.458686 0.999008
vt 3.477745 0.124882
vt 3.463030 0.078127
vt -0.607432 0.315289
vt 0.457344 0.315289
vt 0.457344 0.936457
vt -0.607432 0.936457
vt 0.880501 0.270175
vt 0.755327 0.686459
vt 0.121911 0.887884
vt 0.834385 0.884207
vt 0.834823 0.836812
vt 0.231009 0.871544
vt 0.231761 0.390983
vt 0.467702 0.390983
vt 0.467702 0.872002
vt 0.703643 0.390983
vt 0.704395 0.871544
vt 0.088260 0.057105
vt 0.088260 0.000591
vt -0.661252 0.000591
vt -0.661252 0.057105
vt 0.072343 0.887920
vt 0.770568 0.836810
vt 4.617150 0.125635
vt 4.598376 0.078675
vt -1.473880 0.000591
vt -1.473880 0.057105
vt 2.352469 0.047049
vt 1.241959 0.046951
vt 0.162044 0.686458
vt -0.055283 0.999595
vt 0.317021 0.818797
vt 2.480401 0.000591
vt 2.480401 0.057105
vt -0.582856 0.999812
vt -0.665020 0.349998
vt 0.036870 0.270175
vt 0.087790 0.125635
vt 0.106564 0.078674
vt 0.433588 0.145006
vt 0.433588 0.235410
vt 0.557369 0.235410
vt 0.557369 0.145006
vt 1.061227 0.390983
vt 1.064007 0.871347
vt 1.500227 0.999812
vt 1.582392 0.349999
vt 0.836712 0.428069
vt 0.124289 0.373275
vt 0.469050 0.628909
vt 0.469050 0.365960
vt 0.480358 0.345641
vt 0.514292 0.345641
vt 0.683370 0.345641
vt 0.717303 0.345641
vt 0.728611 0.365960
vt 0.728611 0.628909
vt -1.473880 0.124606
vt -0.661252 0.124606
vt 0.836712 0.380674
vt 0.931915 0.380923
vt 0.931109 0.428316
vt 3.462980 0.046951
vt 4.598397 0.046875
vt 0.770130 0.884204
vt 0.106543 0.046875
vt 1.786725 0.390983
vt 1.786724 0.873222
vt -0.108038 0.879766
vt -0.125823 0.390983
vt -1.677881 0.315289
vt -1.677881 0.936457
vt 0.929614 0.884455
vt 0.929246 0.837059
vt 0.468942 0.628909
vt 0.209381 0.628909
vt 0.209382 0.365960
vt 0.220689 0.345641
vt 0.254623 0.345641
vt 0.423701 0.345641
vt 0.457634 0.345641
vt 0.468942 0.365960
vt 1.522121 0.315289
vt 1.522121 0.936457
vt 2.592569 0.315289
vt 2.592569 0.936457
vt 0.088260 0.124606
vt 0.502922 0.124606
vt 0.919319 0.124606
vt 2.480401 0.124606
vt 1.669086 0.124606
vt 3.478034 -0.000204
vt 4.617536 -0.000482
vt 2.352469 -0.000366
vt 0.087404 -0.000482
vt 1.226905 -0.000204
vt 0.865358 0.884453
vt 0.864991 0.837057
vt 0.866855 0.428316
vt 0.867660 0.380923
vt -0.832214 0.873442
vt -0.851320 0.390983
vt 0.000000 0.000000
s 1
f 20/1/1 61/2/2 62/3/3 19/4/1
f 17/5/4 6/6/4 8/7/4 18/8/4
f 61/2/2 59/9/5 60/10/6 62/3/3
f 12/11/7 9/12/8 16/13/9
f 88/14/10 56/15/11 19/16/12 11/17/12
f 5/18/4 7/19/4 8/7/4 6/6/4
f 40/20/13 28/21/14 6/22/14 17/23/13
f 14/24/15 29/25/16 88/14/10
f 2/26/17 4/27/18 1/28/19
f 95/29/20 100/30/20 99/31/21 72/32/21
f 98/33/22 94/34/22 72/32/21 99/31/21
f 49/35/23 56/36/24 29/37/25 26/38/26
f 12/11/7 35/39/7 32/40/8 9/12/8
f 1/41/4 3/42/4 7/19/4 5/18/4
f 14/43/27 13/44/27 26/38/26 29/37/25
f 18/8/28 8/7/29 89/45/29 91/46/28
f 60/47/30 21/48/31 62/49/32
f 58/50/33 60/10/6 59/9/5 57/51/33
f 39/52/34 35/53/34 51/54/35 44/48/36
f 9/55/4 17/5/4 18/8/4 15/56/4
f 82/57/37 81/58/38 80/59/39 79/60/40
f 96/61/41 71/62/41 94/34/22 98/33/22
f 25/63/42 75/14/43 37/24/44 23/64/42
f 2/26/17 1/28/19 22/65/19 23/66/17
f 51/54/35 53/47/45 44/48/36
f 41/8/46 78/46/46 76/45/47 31/7/47
f 12/67/21 58/68/21 57/69/21 101/70/21 93/71/21 50/72/21 51/73/21 35/74/21
f 13/44/48 97/75/48 96/76/41 26/38/41
f 23/66/17 22/65/19 25/77/49
f 74/78/50 25/77/49 22/65/19 24/79/51
f 24/42/52 30/19/53 33/80/53 74/81/52
f 30/19/53 31/7/47 76/45/47 33/80/53
f 35/39/7 39/82/54 32/40/8
f 15/56/55 18/8/28 91/46/28 90/83/55
f 46/25/56 75/14/43 48/15/57
f 22/41/58 27/18/58 30/19/58 24/42/58
f 27/18/58 28/6/58 31/7/58 30/19/58
f 11/17/12 19/16/12 62/49/32 21/48/31
f 37/24/44 75/14/43 46/25/56
f 53/47/45 55/49/59 44/48/36
f 38/56/60 77/83/60 78/46/46 41/8/46
f 43/1/61 47/35/62 48/36/63 42/4/61
f 47/35/62 45/38/64 46/37/65 48/36/63
f 32/55/58 38/56/58 41/8/58 40/5/58
f 37/43/66 46/37/65 45/38/64 36/44/66
f 3/42/67 87/81/67 10/80/68 7/19/68
f 40/5/58 41/8/58 31/7/58 28/6/58
f 20/1/1 19/4/1 56/36/24 49/35/23
f 34/17/69 44/48/36 55/49/59 42/16/69
f 43/1/61 42/4/61 55/3/70 54/2/71
f 75/14/43 34/17/69 42/16/69 48/15/57
f 54/2/71 55/3/70 53/10/72 52/9/73
f 51/50/74 50/51/74 52/9/73 53/10/72
f 97/84/48 92/85/48 71/62/41 96/61/41
f 73/86/75 102/87/75 100/30/20 95/29/20
f 32/88/76 40/20/13 17/23/13 9/89/76
f 87/90/77 3/91/51 1/28/19 4/27/18
f 2/92/78 23/93/78 37/94/78 36/95/78 92/96/78 97/97/78 13/98/78 14/99/78
f 28/21/14 27/100/79 5/101/79 6/22/14
f 29/25/16 56/15/11 88/14/10
f 4/63/80 2/64/80 14/24/15 88/14/10
f 22/102/81 1/103/81 5/101/79 27/100/79
f 58/54/82 21/48/31 60/47/30
f 80/57/39 85/58/83 86/59/84 79/60/40
f 83/57/85 84/58/86 86/59/84 85/60/83
f 7/19/68 10/80/68 89/45/29 8/7/29
f 81/57/38 82/58/37 84/59/86 83/60/85
f 16/52/87 21/48/31 58/54/82 12/53/87
f 64/57/88 63/60/89 70/59/90 69/58/91
f 67/57/92 69/60/91 70/59/90 68/58/93
f 65/57/94 67/60/92 68/59/93 66/58/95
f 65/57/94 64/60/88 69/59/91 67/58/92
f 68/57/93 70/60/90 63/59/89 66/58/95
f 66/57/95 63/60/89 64/59/88 65/58/94
f 36/44/48 45/38/41 71/76/41 92/75/48
f 45/38/41 47/35/22 94/104/22 71/76/41
f 47/35/22 43/1/21 72/105/21 94/104/22
f 54/2/20 95/106/20 72/105/21 43/1/21
f 50/51/96 93/107/96 73/108/75 52/9/75
f 52/9/75 73/108/75 95/106/20 54/2/20
f 81/57/38 83/58/85 85/59/83 80/60/39
f 84/57/86 82/58/37 79/59/40 86/60/84
f 33/80/97 75/109/97 25/110/49 74/81/50
f 75/109/97 33/80/97 76/45/4 34/111/4
f 77/83/98 39/112/54 44/113/99 78/46/99
f 34/111/4 76/45/4 78/46/99 44/113/99
f 32/40/8 39/82/54 77/114/98 38/115/100
f 59/9/75 61/2/20 100/106/20 102/108/75
f 10/80/101 87/81/77 4/110/18 88/109/101
f 49/35/22 98/104/22 99/105/21 20/1/21
f 61/2/20 20/1/21 99/105/21 100/106/20
f 57/51/96 59/9/75 102/108/75 101/107/96
f 26/38/41 96/76/41 98/104/22 49/35/22
f 88/109/101 11/111/58 89/45/58 10/80/101
f 90/83/102 91/46/103 21/113/103 16/112/9
f 11/111/58 21/113/103 91/46/103 89/45/58
f 9/12/8 15/116/100 90/117/102 16/13/9
f 93/118/96 101/119/96 102/87/75 73/86/75
s 0
f 13/120/104 97/120/104 92/120/104 36/120/104 37/120/104 14/120/104
