# Blender 4.0.0
# www.blender.org
mtllib House3 Topfloor.mtl
o Cube
v -1.051790 -0.041789 1.065099
v -1.051790 0.041789 1.065099
v -1.051790 -0.041789 -2.025155
v -1.051790 0.041789 -2.025155
v 1.051790 -0.041789 1.065099
v 1.051790 0.041789 1.065099
v -1.051790 -0.041789 -1.113852
v -1.051790 0.041789 -1.113852
v 1.051790 -0.041789 -1.113852
v 1.051790 0.041789 -1.113852
v 0.000000 -0.041789 -2.025155
v 0.000000 0.041789 -2.025155
v 0.000000 -0.041789 1.065099
v 0.000000 0.041789 1.065099
v 0.000000 0.041789 -1.113852
v 0.000000 -0.041789 -1.113852
vn -1.0000 -0.0000 -0.0000
vn 1.0000 -0.0000 -0.0000
vn -0.0000 -0.0000 1.0000
vn -0.0000 -1.0000 -0.0000
vn -0.0000 1.0000 -0.0000
vn -0.0000 -0.0000 -1.0000
vt 0.000000 0.705104
vt 0.000000 1.000000
vt 1.000000 0.705104
vt 1.000000 0.000000
vt 0.500000 0.000000
vt 0.000000 0.000000
vt 0.500000 0.705104
vt 0.500000 1.000000
s 0
f 7/1/1 8/1/1 4/2/1 3/2/1
f 9/3/2 10/3/2 6/4/2 5/4/2
f 13/5/3 14/5/3 2/6/3 1/6/3
f 16/7/4 9/3/4 5/4/4 13/5/4
f 15/7/5 8/1/5 2/6/5 14/5/5
f 12/8/5 4/2/5 8/1/5 15/7/5
f 16/7/2 11/8/2 12/8/2 15/7/2
f 1/6/1 2/6/1 8/1/1 7/1/1
f 3/2/4 11/8/4 16/7/4 7/1/4
f 16/7/6 15/7/6 10/3/6 9/3/6
f 10/3/5 15/7/5 14/5/5 6/4/5
f 7/1/4 16/7/4 13/5/4 1/6/4
f 5/4/3 6/4/3 14/5/3 13/5/3
f 3/2/6 4/2/6 12/8/6 11/8/6
