# Blender 4.0.0
# www.blender.org
o Roof
v 13.883468 2.989569 -3.979148
v 13.883468 2.989569 7.428733
v 13.883468 2.989569 -3.979148
v 13.883468 2.989569 7.428733
v -5.957148 2.989569 9.085361
v -9.037707 2.989569 5.536900
v -9.037707 2.989569 -4.380254
v 14.051468 2.989569 -4.147148
v 14.051468 2.989569 7.596733
v -2.550858 2.989569 -9.140922
v 7.662552 2.989569 -4.147148
v 4.072879 2.989569 -4.147148
v -2.550858 2.989569 -4.380254
v -9.037707 3.314142 5.536900
v -9.037707 4.865298 -4.380254
v 4.072879 4.855046 -4.147148
v -2.550858 4.100409 -4.380254
v 14.051468 2.989569 1.724792
v 14.051468 3.694025 1.724792
v -2.550858 4.865298 -4.380254
v -2.550858 2.989569 -4.380254
v 4.072879 2.989569 -9.140922
v 4.072879 2.989569 -4.147148
v 4.072879 4.178248 -4.147148
v 7.662552 4.855046 -4.147148
v 7.662552 2.989569 6.747143
v 7.662552 3.261590 6.747143
v -9.435685 4.837162 -4.954113
v 7.411401 3.678292 1.858901
v 14.838529 3.678292 1.858901
v 7.857848 2.784646 9.752782
v 7.857859 4.837162 -4.954113
v 14.838529 2.754127 -4.899317
v 14.838529 2.715246 8.617118
v 7.411401 2.715246 8.617118
v 7.411401 2.754127 -4.899317
v -3.206621 4.158266 -3.845754
v 4.832163 4.158266 -3.845754
v 4.832163 2.744306 -9.653190
v -3.206621 2.744306 -9.653190
v -9.435472 3.162766 6.653650
v -6.357027 2.784642 9.752802
v 7.857857 3.736236 2.713053
v -9.435655 3.747411 2.599638
v -9.435708 4.984642 -4.932887
v 7.411401 3.828797 1.858901
v 14.838529 3.828797 1.858901
v 7.857848 2.932132 9.773963
v 7.857837 4.984642 -4.932887
v 14.838529 2.901637 -4.920337
v 14.838529 2.862756 8.638139
v 7.411401 2.862756 8.638139
v 7.411401 2.901637 -4.920337
v -3.206621 4.302547 -3.882956
v 4.832163 4.302547 -3.882956
v 4.832163 2.888587 -9.690391
v -3.206621 2.888587 -9.690391
v -9.435921 3.310240 6.674918
v -6.357126 2.932135 9.773943
v 7.857840 3.883721 2.734245
v -9.435739 3.894898 2.620821
vn 1.0000 -0.0000 -0.0000
vn -0.0000 -0.0000 -1.0000
vn -0.7551 -0.0000 0.6556
vn -1.0000 -0.0000 -0.0000
vn 0.0352 -0.0000 -0.9994
vn -0.0000 -0.9900 -0.1411
vn -0.0000 -0.9908 0.1355
vn -0.0000 -0.9716 0.2366
vn -0.0000 -0.9910 -0.1340
vn -0.0000 -0.9898 -0.1428
vn 0.0221 -0.9895 -0.1427
vn 0.0002 -0.9911 -0.1335
vn -0.0000 0.9900 0.1411
vn -0.0000 0.9908 -0.1355
vn -0.0000 0.9716 -0.2366
vn -0.0000 0.9910 0.1340
vn -0.0000 0.9898 0.1428
vn -0.0221 0.9895 0.1427
vn -0.0002 0.9911 0.1335
vn -0.0000 0.1425 -0.9898
vn -0.0000 -0.1411 -0.9900
vn -0.0000 -0.1411 0.9900
vn -0.0000 0.2497 0.9683
vn -0.0000 -0.2497 -0.9683
vn -1.0000 -0.0002 -0.0000
vn -0.0000 -0.1419 0.9899
vn -0.7120 -0.1024 0.6947
vn 1.0000 0.0001 -0.0000
vn -1.0000 -0.0006 -0.0001
vn 0.0003 -0.9898 -0.1421
vn -0.0003 0.9898 0.1421
vn -0.0000 -0.1422 0.9898
vn -0.7119 -0.1001 0.6951
vn -1.0000 -0.0030 -0.0004
vt 1.253906 0.916016
vt 1.253906 0.759766
vt 2.507812 0.916016
vt 0.000000 0.503906
vt 0.996094 0.916016
vt 0.000000 0.916016
vt 1.000000 0.843750
vt 1.000000 0.916016
vt 0.000000 0.669922
vt 0.000000 0.843750
vt 2.007812 0.916016
vt 0.000000 0.500000
vt 1.515625 0.916016
vt 1.515625 0.500000
vt 1.000000 0.652344
vt 4.023438 0.855469
vt 4.023438 0.916016
vt 0.503906 0.468750
vt 1.457031 0.027344
vt 1.457031 0.468750
vt 0.574219 0.027698
vt -0.378906 0.468750
vt -0.378906 0.027698
vt 1.171875 0.044922
vt 0.138825 0.433145
vt 0.138825 0.044922
vt 1.707031 0.005859
vt 1.707031 0.466249
vt -0.129450 0.466520
vt 1.636719 0.017578
vt -0.597656 0.470703
vt -0.597656 0.017578
vt -0.527344 0.263672
vt -0.527344 -0.001953
vt 0.574219 0.027697
vt -0.378906 0.027697
vt -0.128905 0.466251
vt 1.707031 0.466249
vt 0.574219 0.468750
vt 0.503906 0.027344
vt 1.171875 0.433145
vt 1.636719 0.478516
vt 0.996094 0.503906
vt 2.007812 0.500000
s 0
f 18/1/1 19/2/1 9/3/1
f 16/4/2 11/5/2 12/6/2
f 5/6/3 14/7/3 6/8/3
f 13/6/4 17/9/4 10/8/4
f 14/10/4 7/11/4 6/6/4
f 15/12/2 21/13/2 7/6/2
f 16/4/5 21/13/5 20/14/5
f 8/6/1 19/2/1 18/1/1
f 22/6/1 24/15/1 23/8/1
f 11/5/1 27/16/1 26/17/1
f 30/18/6 35/19/6 29/20/6
f 33/21/7 29/22/7 36/23/7
f 37/24/8 39/25/8 38/26/8
f 43/27/9 31/28/9 42/29/9
f 32/30/10 44/31/10 28/32/10
f 41/33/11 44/34/11 42/29/11
f 44/34/12 43/27/12 42/29/12
f 52/19/13 47/18/13 46/20/13
f 46/22/14 50/35/14 53/36/14
f 56/25/15 54/24/15 55/26/15
f 60/27/16 59/37/16 48/38/16
f 61/31/17 49/30/17 45/32/17
f 58/33/18 59/37/18 61/34/18
f 61/34/19 59/37/19 60/27/19
f 29/22/4 53/36/4 36/23/4
f 28/32/20 49/30/20 32/30/20
f 30/39/1 50/35/1 47/39/1
f 31/28/1 60/27/1 48/38/1
f 36/23/21 50/35/21 33/21/21
f 34/40/22 52/19/22 35/19/22
f 30/18/1 51/40/1 34/40/1
f 29/20/4 52/19/4 46/20/4
f 38/26/23 54/24/23 37/24/23
f 40/41/24 56/25/24 39/25/24
f 40/41/4 54/24/4 57/41/4
f 39/25/1 55/26/1 38/26/1
f 28/32/25 61/31/25 45/32/25
f 42/29/26 48/38/26 59/37/26
f 42/29/27 58/33/27 41/33/27
f 43/42/28 49/30/28 60/42/28
f 44/34/29 58/33/29 61/34/29
f 16/4/2 25/43/2 11/5/2
f 14/10/4 15/44/4 7/11/4
f 15/12/2 20/14/2 21/13/2
f 16/4/5 12/6/5 21/13/5
f 11/5/1 25/43/1 27/16/1
f 30/18/6 34/40/6 35/19/6
f 33/21/7 30/39/7 29/22/7
f 37/24/8 40/41/8 39/25/8
f 32/30/30 43/42/30 44/31/30
f 52/19/13 51/40/13 47/18/13
f 46/22/14 47/39/14 50/35/14
f 56/25/15 57/41/15 54/24/15
f 61/31/31 60/42/31 49/30/31
f 29/22/4 46/22/4 53/36/4
f 28/32/20 45/32/20 49/30/20
f 30/39/1 33/21/1 50/35/1
f 31/28/28 43/27/28 60/27/28
f 36/23/21 53/36/21 50/35/21
f 34/40/22 51/40/22 52/19/22
f 30/18/1 47/18/1 51/40/1
f 29/20/4 35/19/4 52/19/4
f 38/26/23 55/26/23 54/24/23
f 40/41/24 57/41/24 56/25/24
f 40/41/4 37/24/4 54/24/4
f 39/25/1 56/25/1 55/26/1
f 28/32/29 44/31/29 61/31/29
f 42/29/32 31/28/32 48/38/32
f 42/29/33 59/37/33 58/33/33
f 43/42/28 32/30/28 49/30/28
f 44/34/34 41/33/34 58/33/34
l 1 2
l 3 4
