# Blender 4.0.0
# www.blender.org
o Plane.021
v -24.533222 -0.007689 -63.747353
v -24.533222 -0.007689 -65.034431
v -24.533222 -0.007689 -66.333221
v -18.183601 -0.007689 -67.460526
v -23.135059 -0.007689 -67.460526
v -23.135059 -0.007689 -65.029327
v -22.229164 -0.007689 -64.276466
v -23.135059 -0.007689 -62.620049
v 1.277788 -0.007689 -95.995712
v -2.270758 -0.007689 -95.995712
v -5.500580 -0.007689 -94.426071
v 4.507610 -0.007689 -94.426071
v 6.621699 -0.007689 -91.809982
v -7.614668 -0.007689 -91.809982
v -10.646243 -0.007689 -82.704132
v -10.646243 -0.007689 -87.655037
v -7.614668 -0.007689 -87.655037
v 6.621699 -0.007689 -87.655037
v 6.621699 -0.007689 -82.485611
v -7.614668 -0.007689 -82.704132
v 6.621699 -0.007689 -75.222672
v -7.614668 -0.007689 -75.222672
v 6.854973 -0.007689 -75.222672
v 12.148155 -0.007689 -75.222672
v 6.854973 -0.007689 -82.485611
v 12.148155 -0.007689 -82.485611
v 12.292439 -0.007689 -60.717236
v 31.360107 -0.007689 -60.717236
v 12.292439 -0.007689 -75.106735
v 31.360107 -0.007689 -75.106735
v -15.568192 -0.007689 -65.110062
v -13.277731 -0.007689 -65.110062
v -15.568192 -0.007689 -67.456116
v -13.277731 -0.007689 -67.456116
v -18.132360 -0.007689 -65.115997
v -15.709574 -0.007689 -65.115997
v -18.132360 -0.007689 -67.426430
v -15.709574 -0.007689 -67.426430
v -18.183601 -0.007689 -62.620049
v -13.299414 -0.007689 -62.620049
v -18.183601 -0.007689 -65.029327
v -13.299414 -0.007689 -65.029327
v -23.158752 -0.007689 -55.028965
v -13.151051 -0.007689 -55.028965
v -23.158752 -0.007689 -62.417313
v -13.151051 -0.007689 -62.417313
v -23.147356 -0.007689 -67.604858
v -13.192232 -0.007689 -67.604858
v -23.147356 -0.007689 -75.056404
v -13.192232 -0.007689 -75.056404
v -18.077547 -0.007689 -75.290840
v -7.749247 -0.007689 -75.290840
v -18.077547 -0.007689 -82.602249
v -7.749247 -0.007689 -82.602249
v -23.092047 -0.007689 -75.214813
v -18.242126 -0.007689 -75.214813
v -23.092047 -0.007689 -82.585373
v -18.242126 -0.007689 -82.585373
vn -0.0000 1.0000 -0.0000
vt -24.790798 0.169712
vt -28.235958 -1.506627
vt -24.790783 -1.506636
vt -17.437096 15.912410
vt -19.546423 12.467633
vt -17.437090 12.467628
vt -7.531601 15.912384
vt -17.437099 18.803373
vt -28.235971 0.169721
vt -29.208805 1.076958
vt -29.208797 0.173274
vt -29.208792 -0.722259
vt -9.002567 20.623589
vt -13.718873 21.715742
vt -15.966143 20.623606
vt -7.531607 18.803347
vt -28.235987 1.861323
vt -17.437082 7.262120
vt -7.531595 12.315559
vt -3.686347 7.262089
vt -7.369287 12.315561
vt -7.369278 7.262097
vt 9.681110 -2.830649
vt -3.585957 7.181422
vt -3.585941 -2.830627
vt -21.377350 0.225882
vt -22.971035 1.858241
vt -22.971029 0.225886
vt -23.069395 0.230016
vt -24.755163 1.837589
vt -24.755148 0.230020
vt -21.392410 -1.506644
vt -21.289108 -6.788428
vt -28.252457 -1.647689
vt -28.252415 -6.788412
vt -21.317904 1.961729
vt -28.244652 7.146443
vt -28.244654 1.961749
vt -17.530731 7.309519
vt -24.717178 12.396721
vt -24.717161 7.309551
vt -24.831680 7.256638
vt -28.206261 12.385015
vt -28.206266 7.256659
vt -19.546431 15.912416
vt -11.249839 21.715736
vt -24.790813 1.861314
vt -7.531585 7.262097
vt -3.686356 12.315555
vt 9.681094 7.181398
vt -21.377359 1.858237
vt -23.069408 1.837585
vt -21.392426 0.169704
vt -21.289183 -1.647707
vt -21.317938 7.146417
vt -17.530746 12.396685
vt -24.831676 12.384995
s 0
f 41/1/1 8/2/1 39/3/1
f 17/4/1 15/5/1 20/6/1
f 18/7/1 14/8/1 17/4/1
f 6/9/1 3/10/1 2/11/1
f 6/9/1 1/12/1 8/2/1
f 20/6/1 18/7/1 17/4/1
f 12/13/1 10/14/1 11/15/1
f 13/16/1 11/15/1 14/8/1
f 41/1/1 5/17/1 6/9/1
f 22/18/1 19/19/1 20/6/1
f 24/20/1 25/21/1 23/22/1
f 28/23/1 29/24/1 27/25/1
f 32/26/1 33/27/1 31/28/1
f 36/29/1 37/30/1 35/31/1
f 40/32/1 41/1/1 39/3/1
f 44/33/1 45/34/1 43/35/1
f 48/36/1 49/37/1 47/38/1
f 52/39/1 53/40/1 51/41/1
f 56/42/1 57/43/1 55/44/1
f 41/1/1 6/9/1 8/2/1
f 17/4/1 16/45/1 15/5/1
f 18/7/1 13/16/1 14/8/1
f 6/9/1 5/17/1 3/10/1
f 6/9/1 2/11/1 1/12/1
f 20/6/1 19/19/1 18/7/1
f 12/13/1 9/46/1 10/14/1
f 13/16/1 12/13/1 11/15/1
f 41/1/1 4/47/1 5/17/1
f 22/18/1 21/48/1 19/19/1
f 24/20/1 26/49/1 25/21/1
f 28/23/1 30/50/1 29/24/1
f 32/26/1 34/51/1 33/27/1
f 36/29/1 38/52/1 37/30/1
f 40/32/1 42/53/1 41/1/1
f 44/33/1 46/54/1 45/34/1
f 48/36/1 50/55/1 49/37/1
f 52/39/1 54/56/1 53/40/1
f 56/42/1 58/57/1 57/43/1
