# Blender 4.0.0
# www.blender.org
o Plane.005
v 8.890555 1.769953 7.171533
v 8.890202 3.881505 6.721765
v 8.890249 3.762410 6.408899
v 8.890249 3.762410 7.034630
v 8.890555 2.978488 6.271996
v 8.891030 1.769938 6.271996
v 8.890555 2.978488 7.171533
v 8.857997 1.769953 7.171533
v 8.858351 3.881505 6.721765
v 8.858303 3.762410 6.408899
v 8.858303 3.762410 7.034630
v 8.857997 2.978488 6.271996
v 8.857522 1.769938 6.271996
v 8.857997 2.978488 7.171533
v 8.857997 2.978488 6.050807
v 8.857522 1.769938 5.151270
v 8.857997 2.978488 5.151270
v 8.858303 3.762410 5.913905
v 8.858303 3.762410 5.288173
v 8.858351 3.881505 5.601039
v 8.857997 1.769953 6.050807
v 8.890555 2.978488 6.050807
v 8.891030 1.769938 5.151270
v 8.890555 2.978488 5.151270
v 8.890249 3.762410 5.913905
v 8.890249 3.762410 5.288173
v 8.890202 3.881505 5.601039
v 8.890555 1.769953 6.050807
v 8.890555 1.769953 11.281532
v 8.890202 3.881505 10.831764
v 8.890249 3.762410 10.518898
v 8.890249 3.762410 11.144630
v 8.890555 2.978488 10.381996
v 8.891030 1.769938 10.381996
v 8.890555 2.978488 11.281532
v 8.857997 1.769953 11.281532
v 8.858351 3.881505 10.831764
v 8.858303 3.762410 10.518898
v 8.858303 3.762410 11.144630
v 8.857997 2.978488 10.381996
v 8.857522 1.769938 10.381996
v 8.857997 2.978488 11.281532
v 8.857997 2.978488 10.160807
v 8.857522 1.769938 9.261271
v 8.857997 2.978488 9.261271
v 8.858303 3.762410 10.023905
v 8.858303 3.762410 9.398172
v 8.858351 3.881505 9.711039
v 8.857997 1.769953 10.160807
v 8.890555 2.978488 10.160807
v 8.891030 1.769938 9.261271
v 8.890555 2.978488 9.261271
v 8.890249 3.762410 10.023905
v 8.890249 3.762410 9.398172
v 8.890202 3.881505 9.711039
v 8.890555 1.769953 10.160807
v 8.890555 1.769953 15.391533
v 8.890202 3.881505 14.941764
v 8.890249 3.762410 14.628899
v 8.890249 3.762410 15.254629
v 8.890555 2.978488 14.491995
v 8.891030 1.769938 14.491995
v 8.890555 2.978488 15.391533
v 8.857997 1.769953 15.391533
v 8.858351 3.881505 14.941764
v 8.858303 3.762410 14.628899
v 8.858303 3.762410 15.254629
v 8.857997 2.978488 14.491995
v 8.857522 1.769938 14.491995
v 8.857997 2.978488 15.391533
v 8.857997 2.978488 14.270807
v 8.857522 1.769938 13.371269
v 8.857997 2.978488 13.371269
v 8.858303 3.762410 14.133904
v 8.858303 3.762410 13.508173
v 8.858351 3.881505 13.821038
v 8.857997 1.769953 14.270807
v 8.890555 2.978488 14.270807
v 8.891030 1.769938 13.371269
v 8.890555 2.978488 13.371269
v 8.890249 3.762410 14.133904
v 8.890249 3.762410 13.508173
v 8.890202 3.881505 13.821038
v 8.890555 1.769953 14.270807
v 8.890555 1.769953 19.501532
v 8.890202 3.881505 19.051764
v 8.890249 3.762410 18.738897
v 8.890249 3.762410 19.364630
v 8.890555 2.978488 18.601995
v 8.891030 1.769938 18.601995
v 8.890555 2.978488 19.501532
v 8.857997 1.769953 19.501532
v 8.858351 3.881505 19.051764
v 8.858303 3.762410 18.738897
v 8.858303 3.762410 19.364630
v 8.857997 2.978488 18.601995
v 8.857522 1.769938 18.601995
v 8.857997 2.978488 19.501532
v 8.857997 2.978488 18.380806
v 8.857522 1.769938 17.481270
v 8.857997 2.978488 17.481270
v 8.858303 3.762410 18.243904
v 8.858303 3.762410 17.618172
v 8.858351 3.881505 17.931038
v 8.857997 1.769953 18.380806
v 8.890555 2.978488 18.380806
v 8.891030 1.769938 17.481270
v 8.890555 2.978488 17.481270
v 8.890249 3.762410 18.243904
v 8.890249 3.762410 17.618172
v 8.890202 3.881505 17.931038
v 8.890555 1.769953 18.380806
v 8.890555 1.769953 23.611532
v 8.890202 3.881505 23.161762
v 8.890249 3.762410 22.848898
v 8.890249 3.762410 23.474628
v 8.890555 2.978488 22.711994
v 8.891030 1.769938 22.711994
v 8.890555 2.978488 23.611532
v 8.857997 1.769953 23.611532
v 8.858351 3.881505 23.161762
v 8.858303 3.762410 22.848898
v 8.858303 3.762410 23.474628
v 8.857997 2.978488 22.711994
v 8.857522 1.769938 22.711994
v 8.857997 2.978488 23.611532
v 8.857997 2.978488 22.490807
v 8.857522 1.769938 21.591269
v 8.857997 2.978488 21.591269
v 8.858303 3.762410 22.353903
v 8.858303 3.762410 21.728172
v 8.858351 3.881505 22.041039
v 8.857997 1.769953 22.490807
v 8.890555 2.978488 22.490807
v 8.891030 1.769938 21.591269
v 8.890555 2.978488 21.591269
v 8.890249 3.762410 22.353903
v 8.890249 3.762410 21.728172
v 8.890202 3.881505 22.041039
v 8.890555 1.769953 22.490807
v 8.890555 1.769953 27.721533
v 8.890202 3.881505 27.271763
v 8.890249 3.762410 26.958899
v 8.890249 3.762410 27.584629
v 8.890555 2.978488 26.821995
v 8.891030 1.769938 26.821995
v 8.890555 2.978488 27.721533
v 8.857997 1.769953 27.721533
v 8.858351 3.881505 27.271763
v 8.858303 3.762410 26.958899
v 8.858303 3.762410 27.584629
v 8.857997 2.978488 26.821995
v 8.857522 1.769938 26.821995
v 8.857997 2.978488 27.721533
v 8.857997 2.978488 26.600807
v 8.857522 1.769938 25.701269
v 8.857997 2.978488 25.701269
v 8.858303 3.762410 26.463903
v 8.858303 3.762410 25.838173
v 8.858351 3.881505 26.151039
v 8.857997 1.769953 26.600807
v 8.890555 2.978488 26.600807
v 8.891030 1.769938 25.701269
v 8.890555 2.978488 25.701269
v 8.890249 3.762410 26.463903
v 8.890249 3.762410 25.838173
v 8.890202 3.881505 26.151039
v 8.890555 1.769953 26.600807
v 8.890555 1.769953 31.831533
v 8.890202 3.881505 31.381763
v 8.890249 3.762410 31.068899
v 8.890249 3.762410 31.694630
v 8.890555 2.978488 30.931995
v 8.891030 1.769938 30.931995
v 8.890555 2.978488 31.831533
v 8.857997 1.769953 31.831533
v 8.858351 3.881505 31.381763
v 8.858303 3.762410 31.068899
v 8.858303 3.762410 31.694630
v 8.857997 2.978488 30.931995
v 8.857522 1.769938 30.931995
v 8.857997 2.978488 31.831533
v 8.857997 2.978488 30.710808
v 8.857522 1.769938 29.811270
v 8.857997 2.978488 29.811270
v 8.858303 3.762410 30.573904
v 8.858303 3.762410 29.948174
v 8.858351 3.881505 30.261040
v 8.857997 1.769953 30.710808
v 8.890555 2.978488 30.710808
v 8.891030 1.769938 29.811270
v 8.890555 2.978488 29.811270
v 8.890249 3.762410 30.573904
v 8.890249 3.762410 29.948174
v 8.890202 3.881505 30.261040
v 8.890555 1.769953 30.710808
v -9.718522 1.769953 7.171533
v -9.718168 3.881505 6.721765
v -9.718216 3.762410 6.408899
v -9.718216 3.762410 7.034630
v -9.718522 2.978488 6.271996
v -9.718997 1.769938 6.271996
v -9.718522 2.978488 7.171533
v -9.685964 1.769953 7.171533
v -9.686317 3.881505 6.721765
v -9.686270 3.762410 6.408899
v -9.686270 3.762410 7.034630
v -9.685964 2.978488 6.271996
v -9.685489 1.769938 6.271996
v -9.685964 2.978488 7.171533
v -9.685964 2.978488 6.050807
v -9.685489 1.769938 5.151270
v -9.685964 2.978488 5.151270
v -9.686270 3.762410 5.913905
v -9.686270 3.762410 5.288173
v -9.686317 3.881505 5.601039
v -9.685964 1.769953 6.050807
v -9.718522 2.978488 6.050807
v -9.718997 1.769938 5.151270
v -9.718522 2.978488 5.151270
v -9.718216 3.762410 5.913905
v -9.718216 3.762410 5.288173
v -9.718168 3.881505 5.601039
v -9.718522 1.769953 6.050807
v -9.718522 1.769953 11.281532
v -9.718168 3.881505 10.831764
v -9.718216 3.762410 10.518898
v -9.718216 3.762410 11.144630
v -9.718522 2.978488 10.381996
v -9.718997 1.769938 10.381996
v -9.718522 2.978488 11.281532
v -9.685964 1.769953 11.281532
v -9.686317 3.881505 10.831764
v -9.686270 3.762410 10.518898
v -9.686270 3.762410 11.144630
v -9.685964 2.978488 10.381996
v -9.685489 1.769938 10.381996
v -9.685964 2.978488 11.281532
v -9.685964 2.978488 10.160807
v -9.685489 1.769938 9.261271
v -9.685964 2.978488 9.261271
v -9.686270 3.762410 10.023905
v -9.686270 3.762410 9.398172
v -9.686317 3.881505 9.711039
v -9.685964 1.769953 10.160807
v -9.718522 2.978488 10.160807
v -9.718997 1.769938 9.261271
v -9.718522 2.978488 9.261271
v -9.718216 3.762410 10.023905
v -9.718216 3.762410 9.398172
v -9.718168 3.881505 9.711039
v -9.718522 1.769953 10.160807
v -9.718522 1.769953 15.391533
v -9.718168 3.881505 14.941764
v -9.718216 3.762410 14.628899
v -9.718216 3.762410 15.254629
v -9.718522 2.978488 14.491995
v -9.718997 1.769938 14.491995
v -9.718522 2.978488 15.391533
v -9.685964 1.769953 15.391533
v -9.686317 3.881505 14.941764
v -9.686270 3.762410 14.628899
v -9.686270 3.762410 15.254629
v -9.685964 2.978488 14.491995
v -9.685489 1.769938 14.491995
v -9.685964 2.978488 15.391533
v -9.685964 2.978488 14.270807
v -9.685489 1.769938 13.371269
v -9.685964 2.978488 13.371269
v -9.686270 3.762410 14.133904
v -9.686270 3.762410 13.508173
v -9.686317 3.881505 13.821038
v -9.685964 1.769953 14.270807
v -9.718522 2.978488 14.270807
v -9.718997 1.769938 13.371269
v -9.718522 2.978488 13.371269
v -9.718216 3.762410 14.133904
v -9.718216 3.762410 13.508173
v -9.718168 3.881505 13.821038
v -9.718522 1.769953 14.270807
v -9.718522 1.769953 19.501532
v -9.718168 3.881505 19.051764
v -9.718216 3.762410 18.738897
v -9.718216 3.762410 19.364630
v -9.718522 2.978488 18.601995
v -9.718997 1.769938 18.601995
v -9.718522 2.978488 19.501532
v -9.685964 1.769953 19.501532
v -9.686317 3.881505 19.051764
v -9.686270 3.762410 18.738897
v -9.686270 3.762410 19.364630
v -9.685964 2.978488 18.601995
v -9.685489 1.769938 18.601995
v -9.685964 2.978488 19.501532
v -9.685964 2.978488 18.380806
v -9.685489 1.769938 17.481270
v -9.685964 2.978488 17.481270
v -9.686270 3.762410 18.243904
v -9.686270 3.762410 17.618172
v -9.686317 3.881505 17.931038
v -9.685964 1.769953 18.380806
v -9.718522 2.978488 18.380806
v -9.718997 1.769938 17.481270
v -9.718522 2.978488 17.481270
v -9.718216 3.762410 18.243904
v -9.718216 3.762410 17.618172
v -9.718168 3.881505 17.931038
v -9.718522 1.769953 18.380806
v -9.718522 1.769953 23.611532
v -9.718168 3.881505 23.161762
v -9.718216 3.762410 22.848898
v -9.718216 3.762410 23.474628
v -9.718522 2.978488 22.711994
v -9.718997 1.769938 22.711994
v -9.718522 2.978488 23.611532
v -9.685964 1.769953 23.611532
v -9.686317 3.881505 23.161762
v -9.686270 3.762410 22.848898
v -9.686270 3.762410 23.474628
v -9.685964 2.978488 22.711994
v -9.685489 1.769938 22.711994
v -9.685964 2.978488 23.611532
v -9.685964 2.978488 22.490807
v -9.685489 1.769938 21.591269
v -9.685964 2.978488 21.591269
v -9.686270 3.762410 22.353903
v -9.686270 3.762410 21.728172
v -9.686317 3.881505 22.041039
v -9.685964 1.769953 22.490807
v -9.718522 2.978488 22.490807
v -9.718997 1.769938 21.591269
v -9.718522 2.978488 21.591269
v -9.718216 3.762410 22.353903
v -9.718216 3.762410 21.728172
v -9.718168 3.881505 22.041039
v -9.718522 1.769953 22.490807
v -9.718522 1.769953 27.721533
v -9.718168 3.881505 27.271763
v -9.718216 3.762410 26.958899
v -9.718216 3.762410 27.584629
v -9.718522 2.978488 26.821995
v -9.718997 1.769938 26.821995
v -9.718522 2.978488 27.721533
v -9.685964 1.769953 27.721533
v -9.686317 3.881505 27.271763
v -9.686270 3.762410 26.958899
v -9.686270 3.762410 27.584629
v -9.685964 2.978488 26.821995
v -9.685489 1.769938 26.821995
v -9.685964 2.978488 27.721533
v -9.685964 2.978488 26.600807
v -9.685489 1.769938 25.701269
v -9.685964 2.978488 25.701269
v -9.686270 3.762410 26.463903
v -9.686270 3.762410 25.838173
v -9.686317 3.881505 26.151039
v -9.685964 1.769953 26.600807
v -9.718522 2.978488 26.600807
v -9.718997 1.769938 25.701269
v -9.718522 2.978488 25.701269
v -9.718216 3.762410 26.463903
v -9.718216 3.762410 25.838173
v -9.718168 3.881505 26.151039
v -9.718522 1.769953 26.600807
v -9.718522 1.769953 31.831533
v -9.718168 3.881505 31.381763
v -9.718216 3.762410 31.068899
v -9.718216 3.762410 31.694630
v -9.718522 2.978488 30.931995
v -9.718997 1.769938 30.931995
v -9.718522 2.978488 31.831533
v -9.685964 1.769953 31.831533
v -9.686317 3.881505 31.381763
v -9.686270 3.762410 31.068899
v -9.686270 3.762410 31.694630
v -9.685964 2.978488 30.931995
v -9.685489 1.769938 30.931995
v -9.685964 2.978488 31.831533
v -9.685964 2.978488 30.710808
v -9.685489 1.769938 29.811270
v -9.685964 2.978488 29.811270
v -9.686270 3.762410 30.573904
v -9.686270 3.762410 29.948174
v -9.686317 3.881505 30.261040
v -9.685964 1.769953 30.710808
v -9.718522 2.978488 30.710808
v -9.718997 1.769938 29.811270
v -9.718522 2.978488 29.811270
v -9.718216 3.762410 30.573904
v -9.718216 3.762410 29.948174
v -9.718168 3.881505 30.261040
v -9.718522 1.769953 30.710808
vn -1.0000 0.0004 -0.0000
vn 1.0000 0.0004 -0.0000
vn -1.0000 0.0004 0.0005
vn -1.0000 -0.0000 -0.0000
vn 1.0000 -0.0000 -0.0000
vn 1.0000 0.0004 0.0005
vt 0.571801 0.785807
vt 0.692150 0.971680
vt 0.592820 0.971680
vt 0.264137 0.971680
vt 0.285714 0.785807
vt 0.143787 0.785807
vt 0.164807 0.971680
vt 0.713728 0.785807
vt 0.450521 0.471680
vt 0.429501 0.285807
vt 0.571429 0.285807
vt 0.120350 0.971680
vt 0.141927 0.785807
vt 0.000000 0.785807
vt 0.021019 0.971680
vt 0.549851 0.471680
vt 0.307106 0.971680
vt 0.285900 0.785807
vt 0.428757 0.785807
vt 0.835193 0.471680
vt 0.856957 0.285807
vt 0.714286 0.285807
vt 0.735305 0.471680
vt 0.407180 0.971680
vt 0.857143 0.785807
vt 0.978237 0.971680
vt 0.878348 0.971680
vt 0.978237 0.471680
vt 1.000000 0.285807
vt 0.857143 0.285807
vt 0.878348 0.471680
vt 1.000000 0.785807
vt 0.428571 0.785807
vt 0.549665 0.971680
vt 0.449777 0.971680
vt 0.406808 0.471680
vt 0.428571 0.285807
vt 0.285714 0.285807
vt 0.306920 0.471680
vt 0.571429 0.785807
vt 0.000000 0.285807
vt 0.121094 0.471680
vt 0.021205 0.471680
vt 0.263951 0.471680
vt 0.142857 0.285807
vt 0.164062 0.471680
vt 0.714286 0.785807
vt 0.835379 0.971680
vt 0.735491 0.971680
vt 0.692522 0.471680
vt 0.592634 0.471680
vt 0.571801 0.500000
vt 0.713728 0.500000
vt 0.642671 1.000000
vt 0.285714 0.500000
vt 0.143787 0.500000
vt 0.214658 1.000000
vt 0.429501 0.000000
vt 0.571429 0.000000
vt 0.500372 0.500000
vt 0.141927 0.500000
vt 0.000000 0.500000
vt 0.070871 1.000000
vt 0.285900 0.500000
vt 0.428757 0.500000
vt 0.357329 1.000000
vt 0.856957 0.000000
vt 0.714286 0.000000
vt 0.785528 0.500000
vt 0.857143 0.500000
vt 1.000000 0.500000
vt 0.928571 1.000000
vt 1.000000 0.000000
vt 0.857143 0.000000
vt 0.928571 0.500000
vt 0.428571 0.500000
vt 0.571429 0.500000
vt 0.500000 1.000000
vt 0.428571 0.000000
vt 0.285714 0.000000
vt 0.357143 0.500000
vt 0.000000 0.000000
vt 0.142857 0.000000
vt 0.071429 0.500000
vt 0.214286 0.500000
vt 0.714286 0.500000
vt 0.785714 1.000000
vt 0.642857 0.500000
s 0
f 17/1/1 18/2/1 19/3/1
f 4/4/2 7/5/2 5/6/2
f 12/6/1 11/4/1 10/7/1
f 25/2/2 22/8/2 24/1/2
f 47/9/1 45/10/1 43/11/1
f 32/12/2 35/13/2 33/14/2
f 38/15/1 40/14/1 42/13/1
f 53/16/2 50/11/2 52/10/2
f 75/17/1 73/18/1 71/19/1
f 60/20/2 63/21/2 61/22/2
f 68/22/1 67/20/1 66/23/1
f 81/24/2 78/19/2 80/18/2
f 101/25/1 102/26/1 103/27/1
f 88/28/2 91/29/2 89/30/2
f 96/30/1 95/28/1 94/31/1
f 109/26/2 106/32/2 108/25/2
f 129/33/1 130/34/1 131/35/1
f 116/36/2 119/37/2 117/38/2
f 122/39/1 124/38/1 126/37/1
f 137/34/2 134/40/2 136/33/2
f 157/41/1 158/42/1 159/43/1
f 144/44/2 147/38/2 145/45/2
f 150/46/1 152/45/1 154/38/1
f 165/42/2 162/45/2 164/41/2
f 185/47/1 186/48/1 187/49/1
f 172/50/2 175/22/2 173/11/2
f 178/51/1 180/11/1 182/22/1
f 193/48/2 190/25/2 192/47/2
f 16/52/3 21/53/3 17/1/3
f 21/53/4 15/8/4 17/1/4
f 15/8/1 18/2/1 17/1/1
f 18/2/1 20/54/1 19/3/1
f 7/5/5 1/55/5 5/6/5
f 1/55/6 6/56/6 5/6/6
f 5/6/2 3/7/2 4/4/2
f 3/7/2 2/57/2 4/4/2
f 13/56/3 8/55/3 12/6/3
f 8/55/4 14/5/4 12/6/4
f 14/5/1 11/4/1 12/6/1
f 11/4/1 9/57/1 10/7/1
f 22/8/5 28/53/5 24/1/5
f 28/53/6 23/52/6 24/1/6
f 24/1/2 26/3/2 25/2/2
f 26/3/2 27/54/2 25/2/2
f 44/58/3 49/59/3 45/10/3
f 49/59/4 43/11/4 45/10/4
f 43/11/1 46/16/1 47/9/1
f 46/16/1 48/60/1 47/9/1
f 35/13/5 29/61/5 33/14/5
f 29/61/6 34/62/6 33/14/6
f 33/14/2 31/15/2 32/12/2
f 31/15/2 30/63/2 32/12/2
f 41/62/3 36/61/3 40/14/3
f 36/61/4 42/13/4 40/14/4
f 42/13/1 39/12/1 38/15/1
f 39/12/1 37/63/1 38/15/1
f 50/11/5 56/59/5 52/10/5
f 56/59/6 51/58/6 52/10/6
f 52/10/2 54/9/2 53/16/2
f 54/9/2 55/60/2 53/16/2
f 72/64/3 77/65/3 73/18/3
f 77/65/4 71/19/4 73/18/4
f 71/19/1 74/24/1 75/17/1
f 74/24/1 76/66/1 75/17/1
f 63/21/5 57/67/5 61/22/5
f 57/67/6 62/68/6 61/22/6
f 61/22/2 59/23/2 60/20/2
f 59/23/2 58/69/2 60/20/2
f 69/68/3 64/67/3 68/22/3
f 64/67/4 70/21/4 68/22/4
f 70/21/1 67/20/1 68/22/1
f 67/20/1 65/69/1 66/23/1
f 78/19/5 84/65/5 80/18/5
f 84/65/6 79/64/6 80/18/6
f 80/18/2 82/17/2 81/24/2
f 82/17/2 83/66/2 81/24/2
f 100/70/3 105/71/3 101/25/3
f 105/71/4 99/32/4 101/25/4
f 99/32/1 102/26/1 101/25/1
f 102/26/1 104/72/1 103/27/1
f 91/29/5 85/73/5 89/30/5
f 85/73/6 90/74/6 89/30/6
f 89/30/2 87/31/2 88/28/2
f 87/31/2 86/75/2 88/28/2
f 97/74/3 92/73/3 96/30/3
f 92/73/4 98/29/4 96/30/4
f 98/29/1 95/28/1 96/30/1
f 95/28/1 93/75/1 94/31/1
f 106/32/5 112/71/5 108/25/5
f 112/71/6 107/70/6 108/25/6
f 108/25/2 110/27/2 109/26/2
f 110/27/2 111/72/2 109/26/2
f 128/76/3 133/77/3 129/33/3
f 133/77/4 127/40/4 129/33/4
f 127/40/1 130/34/1 129/33/1
f 130/34/1 132/78/1 131/35/1
f 119/37/5 113/79/5 117/38/5
f 113/79/6 118/80/6 117/38/6
f 117/38/2 115/39/2 116/36/2
f 115/39/2 114/81/2 116/36/2
f 125/80/3 120/79/3 124/38/3
f 120/79/4 126/37/4 124/38/4
f 126/37/1 123/36/1 122/39/1
f 123/36/1 121/81/1 122/39/1
f 134/40/5 140/77/5 136/33/5
f 140/77/6 135/76/6 136/33/6
f 136/33/2 138/35/2 137/34/2
f 138/35/2 139/78/2 137/34/2
f 156/82/3 161/83/3 157/41/3
f 161/83/4 155/45/4 157/41/4
f 155/45/1 158/42/1 157/41/1
f 158/42/1 160/84/1 159/43/1
f 147/38/5 141/80/5 145/45/5
f 141/80/6 146/83/6 145/45/6
f 145/45/2 143/46/2 144/44/2
f 143/46/2 142/85/2 144/44/2
f 153/83/3 148/80/3 152/45/3
f 148/80/4 154/38/4 152/45/4
f 154/38/1 151/44/1 150/46/1
f 151/44/1 149/85/1 150/46/1
f 162/45/5 168/83/5 164/41/5
f 168/83/6 163/82/6 164/41/6
f 164/41/2 166/43/2 165/42/2
f 166/43/2 167/84/2 165/42/2
f 184/86/3 189/70/3 185/47/3
f 189/70/4 183/25/4 185/47/4
f 183/25/1 186/48/1 185/47/1
f 186/48/1 188/87/1 187/49/1
f 175/22/5 169/68/5 173/11/5
f 169/68/6 174/59/6 173/11/6
f 173/11/2 171/51/2 172/50/2
f 171/51/2 170/88/2 172/50/2
f 181/59/3 176/68/3 180/11/3
f 176/68/4 182/22/4 180/11/4
f 182/22/1 179/50/1 178/51/1
f 179/50/1 177/88/1 178/51/1
f 190/25/5 196/70/5 192/47/5
f 196/70/6 191/86/6 192/47/6
f 192/47/2 194/49/2 193/48/2
f 194/49/2 195/87/2 193/48/2
f 213/1/2 215/3/2 214/2/2
f 200/4/1 201/6/1 203/5/1
f 208/6/2 206/7/2 207/4/2
f 221/2/1 220/1/1 218/8/1
f 243/9/2 239/11/2 241/10/2
f 228/12/1 229/14/1 231/13/1
f 234/15/2 238/13/2 236/14/2
f 249/16/1 248/10/1 246/11/1
f 271/17/2 267/19/2 269/18/2
f 256/20/1 257/22/1 259/21/1
f 264/22/2 262/23/2 263/20/2
f 277/24/1 276/18/1 274/19/1
f 297/25/2 299/27/2 298/26/2
f 284/28/1 285/30/1 287/29/1
f 292/30/2 290/31/2 291/28/2
f 305/26/1 304/25/1 302/32/1
f 325/33/2 327/35/2 326/34/2
f 312/36/1 313/38/1 315/37/1
f 318/39/2 322/37/2 320/38/2
f 333/34/1 332/33/1 330/40/1
f 353/41/2 355/43/2 354/42/2
f 340/44/1 341/45/1 343/38/1
f 346/46/2 350/38/2 348/45/2
f 361/42/1 360/41/1 358/45/1
f 381/47/2 383/49/2 382/48/2
f 368/50/1 369/11/1 371/22/1
f 374/51/2 378/22/2 376/11/2
f 389/48/1 388/47/1 386/25/1
f 212/52/6 213/1/6 217/53/6
f 217/53/5 213/1/5 211/8/5
f 211/8/2 213/1/2 214/2/2
f 214/2/2 215/3/2 216/54/2
f 203/5/4 201/6/4 197/55/4
f 197/55/3 201/6/3 202/56/3
f 201/6/1 200/4/1 199/7/1
f 199/7/1 200/4/1 198/57/1
f 209/56/6 208/6/6 204/55/6
f 204/55/5 208/6/5 210/5/5
f 210/5/2 208/6/2 207/4/2
f 207/4/2 206/7/2 205/57/2
f 218/8/4 220/1/4 224/53/4
f 224/53/3 220/1/3 219/52/3
f 220/1/1 221/2/1 222/3/1
f 222/3/1 221/2/1 223/54/1
f 240/58/6 241/10/6 245/59/6
f 245/59/5 241/10/5 239/11/5
f 239/11/2 243/9/2 242/16/2
f 242/16/2 243/9/2 244/60/2
f 231/13/4 229/14/4 225/61/4
f 225/61/3 229/14/3 230/62/3
f 229/14/1 228/12/1 227/15/1
f 227/15/1 228/12/1 226/63/1
f 237/62/6 236/14/6 232/61/6
f 232/61/5 236/14/5 238/13/5
f 238/13/2 234/15/2 235/12/2
f 235/12/2 234/15/2 233/63/2
f 246/11/4 248/10/4 252/59/4
f 252/59/3 248/10/3 247/58/3
f 248/10/1 249/16/1 250/9/1
f 250/9/1 249/16/1 251/60/1
f 268/64/6 269/18/6 273/65/6
f 273/65/5 269/18/5 267/19/5
f 267/19/2 271/17/2 270/24/2
f 270/24/2 271/17/2 272/66/2
f 259/21/4 257/22/4 253/67/4
f 253/67/3 257/22/3 258/68/3
f 257/22/1 256/20/1 255/23/1
f 255/23/1 256/20/1 254/69/1
f 265/68/6 264/22/6 260/67/6
f 260/67/5 264/22/5 266/21/5
f 266/21/2 264/22/2 263/20/2
f 263/20/2 262/23/2 261/69/2
f 274/19/4 276/18/4 280/65/4
f 280/65/3 276/18/3 275/64/3
f 276/18/1 277/24/1 278/17/1
f 278/17/1 277/24/1 279/66/1
f 296/70/6 297/25/6 301/71/6
f 301/71/5 297/25/5 295/32/5
f 295/32/2 297/25/2 298/26/2
f 298/26/2 299/27/2 300/72/2
f 287/29/4 285/30/4 281/73/4
f 281/73/3 285/30/3 286/74/3
f 285/30/1 284/28/1 283/31/1
f 283/31/1 284/28/1 282/75/1
f 293/74/6 292/30/6 288/73/6
f 288/73/5 292/30/5 294/29/5
f 294/29/2 292/30/2 291/28/2
f 291/28/2 290/31/2 289/75/2
f 302/32/4 304/25/4 308/71/4
f 308/71/3 304/25/3 303/70/3
f 304/25/1 305/26/1 306/27/1
f 306/27/1 305/26/1 307/72/1
f 324/76/6 325/33/6 329/77/6
f 329/77/5 325/33/5 323/40/5
f 323/40/2 325/33/2 326/34/2
f 326/34/2 327/35/2 328/78/2
f 315/37/4 313/38/4 309/79/4
f 309/79/3 313/38/3 314/80/3
f 313/38/1 312/36/1 311/39/1
f 311/39/1 312/36/1 310/81/1
f 321/80/6 320/38/6 316/79/6
f 316/79/5 320/38/5 322/37/5
f 322/37/2 318/39/2 319/36/2
f 319/36/2 318/39/2 317/81/2
f 330/40/4 332/33/4 336/77/4
f 336/77/3 332/33/3 331/76/3
f 332/33/1 333/34/1 334/35/1
f 334/35/1 333/34/1 335/78/1
f 352/82/6 353/41/6 357/83/6
f 357/83/5 353/41/5 351/45/5
f 351/45/2 353/41/2 354/42/2
f 354/42/2 355/43/2 356/84/2
f 343/38/4 341/45/4 337/80/4
f 337/80/3 341/45/3 342/83/3
f 341/45/1 340/44/1 339/46/1
f 339/46/1 340/44/1 338/85/1
f 349/83/6 348/45/6 344/80/6
f 344/80/5 348/45/5 350/38/5
f 350/38/2 346/46/2 347/44/2
f 347/44/2 346/46/2 345/85/2
f 358/45/4 360/41/4 364/83/4
f 364/83/3 360/41/3 359/82/3
f 360/41/1 361/42/1 362/43/1
f 362/43/1 361/42/1 363/84/1
f 380/86/6 381/47/6 385/70/6
f 385/70/5 381/47/5 379/25/5
f 379/25/2 381/47/2 382/48/2
f 382/48/2 383/49/2 384/87/2
f 371/22/4 369/11/4 365/68/4
f 365/68/3 369/11/3 370/59/3
f 369/11/1 368/50/1 367/51/1
f 367/51/1 368/50/1 366/88/1
f 377/59/6 376/11/6 372/68/6
f 372/68/5 376/11/5 378/22/5
f 378/22/2 374/51/2 375/50/2
f 375/50/2 374/51/2 373/88/2
f 386/25/4 388/47/4 392/70/4
f 392/70/3 388/47/3 387/86/3
f 388/47/1 389/48/1 390/49/1
f 390/49/1 389/48/1 391/87/1
