# Blender 4.0.0
# www.blender.org
o Plane
v 12.330086 -0.015233 41.077217
v 18.495113 -0.015233 41.077217
v 12.330086 -0.015233 37.233589
v 18.495113 -0.015233 37.233589
v 12.330086 0.984767 37.233589
v 12.330086 0.984767 41.077217
v 18.495113 0.984767 41.077217
v 18.495113 0.984767 37.233589
v 12.585209 -0.015233 41.077217
v 18.239992 -0.015233 41.077217
v 18.239990 0.651434 41.077217
v 12.585208 0.651434 41.077217
v 12.585209 -0.015233 41.579754
v 18.239992 -0.015233 41.579754
v 18.239990 0.651434 41.579754
v 12.585208 0.651434 41.579754
v 12.841461 0.318100 42.091354
v 17.983738 0.318100 42.091354
v 12.841462 -0.015233 42.091354
v 17.983738 -0.015233 42.091354
v 17.983738 -0.015233 41.579754
v 12.841462 -0.015233 41.579754
v 17.983738 0.318100 41.579754
v 12.841461 0.318100 41.579754
vn -1.0000 -0.0000 -0.0000
vn 1.0000 -0.0000 -0.0000
vn -0.0000 -0.0000 1.0000
vn -0.0000 1.0000 -0.0000
vn -0.0000 -0.0000 -1.0000
vt 0.508684 0.493508
vt 0.508684 2.415322
vt 0.508684 2.415322
vt 3.591198 2.415322
vt 3.591198 0.493508
vt 3.463637 0.493508
vt 3.463638 0.493508
vt 3.335510 0.493508
vt 3.335511 0.493508
vt 0.636246 0.493508
vt 0.636245 0.493508
vt 3.335510 0.493508
vt 0.764372 0.493508
vt 0.764372 0.493508
vt 3.463637 0.493508
vt 0.636245 0.493508
vt 3.591199 2.415322
vt 0.508684 0.493508
s 0
f 1/1/1 5/2/1 3/3/1
f 4/4/2 7/5/2 2/5/2
f 2/5/3 11/6/3 10/7/3
f 14/7/3 23/8/3 21/9/3
f 9/10/1 16/11/1 12/11/1
f 1/1/3 12/11/3 6/1/3
f 18/12/3 19/13/3 20/9/3
f 13/10/3 24/14/3 16/11/3
f 11/6/2 14/7/2 10/7/2
f 16/11/4 11/15/4 12/16/4
f 22/13/1 17/14/1 24/14/1
f 15/6/3 24/14/3 23/8/3
f 8/17/4 6/18/4 7/5/4
f 3/3/5 8/4/5 4/4/5
f 11/15/3 6/18/3 12/16/3
f 23/8/2 20/9/2 21/9/2
f 24/14/4 18/12/4 23/8/4
f 1/1/1 6/1/1 5/2/1
f 4/4/2 8/4/2 7/5/2
f 2/5/3 7/5/3 11/6/3
f 14/7/3 15/6/3 23/8/3
f 9/10/1 13/10/1 16/11/1
f 1/1/3 9/10/3 12/11/3
f 18/12/3 17/14/3 19/13/3
f 13/10/3 22/13/3 24/14/3
f 11/6/2 15/6/2 14/7/2
f 16/11/4 15/6/4 11/15/4
f 22/13/1 19/13/1 17/14/1
f 15/6/3 16/11/3 24/14/3
f 8/17/4 5/3/4 6/18/4
f 3/3/5 5/3/5 8/4/5
f 11/15/3 7/5/3 6/18/3
f 23/8/2 18/12/2 20/9/2
f 24/14/4 17/14/4 18/12/4
