# Blender 4.0.0
# www.blender.org
o Vert.002
v -11.794128 3.000000 8.004241
v -11.794128 6.000000 8.004241
v 8.181786 3.000000 9.109484
v 8.181786 6.000000 9.109484
v 9.595835 3.000000 -10.622081
v 9.595835 6.000000 -10.622081
v -12.770831 3.000000 -9.028525
v -12.770831 6.000000 -9.028525
v -5.522304 6.000000 8.351254
v 1.904081 6.000000 8.762146
v 1.904081 3.000000 8.762146
v -5.522305 3.000000 8.351254
v -5.522304 6.000000 7.395208
v 1.904081 6.000000 7.806101
v 1.904081 3.000000 7.806101
v -5.522305 3.000000 7.395208
v 0.358602 6.000000 -9.963957
v 0.358602 3.000000 -9.963957
v -12.348251 3.000000 8.559476
v -12.348251 6.000000 8.559476
v 8.724148 3.000000 9.725388
v 8.724148 6.000000 9.725388
v 10.227591 3.000000 -11.253573
v 10.227591 6.000000 -11.253573
v -13.387902 3.000000 -9.571044
v -13.387902 6.000000 -9.571044
v -4.937304 6.000000 8.969515
v 1.319081 6.000000 9.315674
v 1.319081 3.000000 9.315674
v -4.937304 3.000000 8.969515
v -4.937304 6.000000 8.013470
v 1.319081 6.000000 8.359629
v 1.319081 3.000000 8.359629
v -4.937304 3.000000 8.013470
v 0.317028 6.000000 -10.547478
v 0.317028 3.000000 -10.547478
vn 0.0552 -0.0000 -0.9985
vn -0.9974 -0.0000 -0.0715
vn 0.0711 -0.0000 0.9975
vn 0.9984 -0.0000 -0.0572
vn 1.0000 -0.0000 -0.0000
vn -1.0000 -0.0000 -0.0000
vn -0.0552 -0.0000 0.9985
vn 0.9974 -0.0000 0.0715
vn -0.0711 -0.0000 -0.9975
vn -0.9984 -0.0000 0.0572
vn -0.0000 1.0000 -0.0000
vn -0.0000 -1.0000 -0.0000
vt 1.497624 0.002114
vt 2.493132 0.249589
vt 1.497624 0.249589
vt 1.497624 0.002116
vt 4.252449 0.249589
vt 2.744899 0.002114
vt 4.492872 0.249588
vt 2.744899 0.249589
vt 3.993010 0.249588
vt 1.497624 0.002113
vt 3.993010 0.002113
vt 2.490706 0.249588
vt 1.497624 0.249588
vt 2.495629 0.249588
vt 0.000000 0.249588
vt 1.624011 0.002113
vt 1.624011 0.249588
vt 0.000000 0.002113
vt 1.497624 0.002114
vt 2.493132 0.002116
vt 4.252449 0.002114
vt 4.492872 0.002113
vt 2.490706 0.002113
vt 2.495629 0.002113
s 0
f 10/1/1 3/2/1 11/3/1
f 4/4/2 5/5/2 3/3/2
f 17/6/3 7/7/3 18/8/3
f 1/9/4 8/10/4 2/11/4
f 2/10/1 12/12/1 1/13/1
f 13/10/1 15/14/1 16/13/1
f 15/15/5 10/16/5 11/17/5
f 9/18/6 16/17/6 12/15/6
f 6/19/3 18/8/3 5/3/3
f 21/2/7 28/1/7 29/3/7
f 23/5/8 22/4/8 21/3/8
f 25/7/9 35/6/9 36/8/9
f 26/10/10 19/9/10 20/11/10
f 30/12/7 20/10/7 19/13/7
f 33/14/7 31/10/7 34/13/7
f 28/16/6 33/15/6 29/17/6
f 34/17/5 27/18/5 30/15/5
f 36/8/9 24/19/9 23/3/9
f 4/20/11 28/1/11 22/20/11
f 12/12/12 19/13/12 1/13/12
f 6/21/11 22/4/11 24/21/11
f 5/5/12 21/3/12 3/3/12
f 8/22/11 35/6/11 26/22/11
f 5/3/12 36/8/12 23/3/12
f 7/13/12 19/9/12 25/13/12
f 8/10/11 20/11/11 2/11/11
f 9/23/11 20/10/11 27/23/11
f 3/2/12 29/3/12 11/3/12
f 11/17/12 33/15/12 15/15/12
f 10/16/11 32/18/11 28/16/11
f 15/14/12 34/13/12 16/13/12
f 14/24/11 31/10/11 32/24/11
f 12/15/12 34/17/12 30/15/12
f 9/18/11 31/16/11 13/16/11
f 6/19/11 35/6/11 17/6/11
f 7/7/12 36/8/12 18/8/12
f 10/1/1 4/20/1 3/2/1
f 4/4/2 6/21/2 5/5/2
f 17/6/3 8/22/3 7/7/3
f 1/9/4 7/13/4 8/10/4
f 2/10/1 9/23/1 12/12/1
f 13/10/1 14/24/1 15/14/1
f 15/15/5 14/18/5 10/16/5
f 9/18/6 13/16/6 16/17/6
f 6/19/3 17/6/3 18/8/3
f 21/2/7 22/20/7 28/1/7
f 23/5/8 24/21/8 22/4/8
f 25/7/9 26/22/9 35/6/9
f 26/10/10 25/13/10 19/9/10
f 30/12/7 27/23/7 20/10/7
f 33/14/7 32/24/7 31/10/7
f 28/16/6 32/18/6 33/15/6
f 34/17/5 31/16/5 27/18/5
f 36/8/9 35/6/9 24/19/9
f 4/20/11 10/1/11 28/1/11
f 12/12/12 30/12/12 19/13/12
f 6/21/11 4/4/11 22/4/11
f 5/5/12 23/5/12 21/3/12
f 8/22/11 17/6/11 35/6/11
f 5/3/12 18/8/12 36/8/12
f 7/13/12 1/9/12 19/9/12
f 8/10/11 26/10/11 20/11/11
f 9/23/11 2/10/11 20/10/11
f 3/2/12 21/2/12 29/3/12
f 11/17/12 29/17/12 33/15/12
f 10/16/11 14/18/11 32/18/11
f 15/14/12 33/14/12 34/13/12
f 14/24/11 13/10/11 31/10/11
f 12/15/12 16/17/12 34/17/12
f 9/18/11 27/18/11 31/16/11
f 6/19/11 24/19/11 35/6/11
f 7/7/12 25/7/12 36/8/12
o Vert.003
v 5.248927 2.998052 6.725667
v 7.633195 2.998052 6.794798
v 5.318055 2.998052 4.341385
v 7.702323 2.998052 4.410516
v 5.387183 2.998052 1.957100
v 7.771451 2.998052 2.026230
v 5.456311 2.998052 -0.427182
v 7.840580 2.998052 -0.358052
v 5.525440 2.998052 -2.811466
v 7.909708 2.998052 -2.742335
v 5.594568 2.998052 -5.195748
v 7.978836 2.998052 -5.126617
v 5.663696 2.998052 -7.580031
v 8.047963 2.998052 -7.510900
v 5.732824 2.998052 -9.964317
v 8.117092 2.998052 -9.895185
v 5.176141 2.998052 9.236132
v 7.558591 2.998052 9.367950
v 8.452967 2.998052 9.417435
v 8.638827 2.998052 6.823956
v 8.809484 2.998052 4.442616
v 8.980141 2.998052 2.061276
v 9.150798 2.998052 -0.320062
v 9.321455 2.998052 -2.701402
v 9.492112 2.998052 -5.082741
v 9.662769 2.998052 -7.464080
v 9.833426 2.998052 -9.845423
v 5.752458 2.998052 -10.641493
v 8.143669 2.998052 -10.811859
v 9.911713 2.998052 -10.937828
v 5.248927 2.890052 6.725667
v 7.633195 2.890052 6.794798
v 5.318055 2.890052 4.341385
v 7.702323 2.890052 4.410516
v 5.387183 2.890052 1.957100
v 7.771451 2.890052 2.026230
v 5.456311 2.890052 -0.427182
v 7.840580 2.890052 -0.358052
v 5.525440 2.890052 -2.811466
v 7.909708 2.890052 -2.742335
v 5.594568 2.890052 -5.195748
v 7.978836 2.890052 -5.126617
v 5.663696 2.890052 -7.580031
v 8.047963 2.890052 -7.510900
v 5.732824 2.890052 -9.964317
v 8.117092 2.890052 -9.895185
v 5.176141 2.890052 9.236132
v 7.558591 2.890052 9.367950
v 8.452967 2.890052 9.417435
v 8.638827 2.890052 6.823956
v 8.809484 2.890052 4.442616
v 8.980141 2.890052 2.061276
v 9.150798 2.890052 -0.320062
v 9.321455 2.890052 -2.701402
v 9.492112 2.890052 -5.082741
v 9.662769 2.890052 -7.464080
v 9.833426 2.890052 -9.845423
v 5.752458 2.890052 -10.641493
v 8.143669 2.890052 -10.811859
v 9.911713 2.890052 -10.937828
vn -0.0000 1.0000 -0.0000
vn -0.0000 -1.0000 -0.0000
vn -0.9996 -0.0000 -0.0290
vn -0.0552 -0.0000 0.9985
vn -0.0711 -0.0000 -0.9975
vn 0.9974 -0.0000 0.0715
vt 0.918232 0.621260
vt 0.684834 0.559822
vt 0.918233 0.559822
vt 0.597216 0.623370
vt 0.586392 0.559822
vt 0.684834 0.501472
vt 0.918233 0.501472
vt 0.576453 0.501472
vt 0.919082 0.621621
vt 0.685684 0.563271
vt 0.919083 0.563271
vt 0.577303 0.621621
vt 0.567364 0.563271
vt 0.685685 0.504921
vt 0.919083 0.504921
vt 0.557426 0.504921
vt 0.919997 0.621670
vt 0.686598 0.563320
vt 0.919997 0.563320
vt 0.558339 0.621670
vt 0.548401 0.563320
vt 0.686599 0.504970
vt 0.919997 0.504970
vt 0.538462 0.504970
vt 0.918957 0.621669
vt 0.685559 0.563319
vt 0.918958 0.563319
vt 0.537423 0.621669
vt 0.527484 0.563319
vt 0.685559 0.504969
vt 0.918958 0.504969
vt 0.517546 0.504969
vt 0.918768 0.604756
vt 0.685369 0.621329
vt 0.685369 0.598895
vt 0.517356 0.621329
vt 0.512797 0.594562
vt 0.684834 0.622794
vt 0.685684 0.621621
vt 0.686598 0.621670
vt 0.685559 0.621669
vt 0.918768 0.621329
s 0
f 53/25/13 38/26/13 37/27/13
f 38/26/13 55/28/13 56/29/13
f 37/27/13 40/30/13 39/31/13
f 40/30/13 56/29/13 57/32/13
f 39/33/13 42/34/13 41/35/13
f 42/34/13 57/36/13 58/37/13
f 41/35/13 44/38/13 43/39/13
f 44/38/13 58/37/13 59/40/13
f 43/41/13 46/42/13 45/43/13
f 46/42/13 59/44/13 60/45/13
f 45/43/13 48/46/13 47/47/13
f 48/46/13 60/45/13 61/48/13
f 47/49/13 50/50/13 49/51/13
f 50/50/13 61/52/13 62/53/13
f 49/51/13 52/54/13 51/55/13
f 52/54/13 62/53/13 63/56/13
f 64/57/13 52/58/13 65/59/13
f 65/59/13 63/60/13 66/61/13
f 83/25/14 68/26/14 84/62/14
f 85/28/14 68/26/14 86/29/14
f 67/27/14 70/30/14 68/26/14
f 86/29/14 70/30/14 87/32/14
f 69/33/14 72/34/14 70/63/14
f 87/36/14 72/34/14 88/37/14
f 71/35/14 74/38/14 72/34/14
f 88/37/14 74/38/14 89/40/14
f 73/41/14 76/42/14 74/64/14
f 89/44/14 76/42/14 90/45/14
f 75/43/14 78/46/14 76/42/14
f 90/45/14 78/46/14 91/48/14
f 77/49/14 80/50/14 78/65/14
f 91/52/14 80/50/14 92/53/14
f 79/51/14 82/54/14 80/50/14
f 92/53/14 82/54/14 93/56/14
f 94/57/14 82/58/14 81/66/14
f 95/59/14 93/60/14 82/58/14
f 41/35/15 69/33/15 39/33/15
f 45/43/15 73/41/15 43/41/15
f 49/51/15 77/49/15 47/49/15
f 53/25/16 84/62/16 54/62/16
f 65/59/17 94/57/17 64/57/17
f 63/60/18 96/61/18 66/61/18
f 64/57/15 81/66/15 51/66/15
f 37/27/15 83/25/15 53/25/15
f 39/31/15 67/27/15 37/27/15
f 43/39/15 71/35/15 41/35/15
f 51/55/15 79/51/15 49/51/15
f 55/28/18 86/29/18 56/29/18
f 54/62/16 85/28/16 55/28/16
f 56/29/18 87/32/18 57/32/18
f 57/36/18 88/37/18 58/37/18
f 58/37/18 89/40/18 59/40/18
f 59/44/18 90/45/18 60/45/18
f 60/45/18 91/48/18 61/48/18
f 61/52/18 92/53/18 62/53/18
f 62/53/18 93/56/18 63/56/18
f 66/61/17 95/59/17 65/59/17
f 47/47/15 75/43/15 45/43/15
f 53/25/13 54/62/13 38/26/13
f 38/26/13 54/62/13 55/28/13
f 37/27/13 38/26/13 40/30/13
f 40/30/13 38/26/13 56/29/13
f 39/33/13 40/63/13 42/34/13
f 42/34/13 40/63/13 57/36/13
f 41/35/13 42/34/13 44/38/13
f 44/38/13 42/34/13 58/37/13
f 43/41/13 44/64/13 46/42/13
f 46/42/13 44/64/13 59/44/13
f 45/43/13 46/42/13 48/46/13
f 48/46/13 46/42/13 60/45/13
f 47/49/13 48/65/13 50/50/13
f 50/50/13 48/65/13 61/52/13
f 49/51/13 50/50/13 52/54/13
f 52/54/13 50/50/13 62/53/13
f 64/57/13 51/66/13 52/58/13
f 65/59/13 52/58/13 63/60/13
f 83/25/14 67/27/14 68/26/14
f 85/28/14 84/62/14 68/26/14
f 67/27/14 69/31/14 70/30/14
f 86/29/14 68/26/14 70/30/14
f 69/33/14 71/35/14 72/34/14
f 87/36/14 70/63/14 72/34/14
f 71/35/14 73/39/14 74/38/14
f 88/37/14 72/34/14 74/38/14
f 73/41/14 75/43/14 76/42/14
f 89/44/14 74/64/14 76/42/14
f 75/43/14 77/47/14 78/46/14
f 90/45/14 76/42/14 78/46/14
f 77/49/14 79/51/14 80/50/14
f 91/52/14 78/65/14 80/50/14
f 79/51/14 81/55/14 82/54/14
f 92/53/14 80/50/14 82/54/14
f 94/57/14 95/59/14 82/58/14
f 95/59/14 96/61/14 93/60/14
f 41/35/15 71/35/15 69/33/15
f 45/43/15 75/43/15 73/41/15
f 49/51/15 79/51/15 77/49/15
f 53/25/16 83/25/16 84/62/16
f 65/59/17 95/59/17 94/57/17
f 63/60/18 93/60/18 96/61/18
f 64/57/15 94/57/15 81/66/15
f 37/27/15 67/27/15 83/25/15
f 39/31/15 69/31/15 67/27/15
f 43/39/15 73/39/15 71/35/15
f 51/55/15 81/55/15 79/51/15
f 55/28/18 85/28/18 86/29/18
f 54/62/16 84/62/16 85/28/16
f 56/29/18 86/29/18 87/32/18
f 57/36/18 87/36/18 88/37/18
f 58/37/18 88/37/18 89/40/18
f 59/44/18 89/44/18 90/45/18
f 60/45/18 90/45/18 91/48/18
f 61/52/18 91/52/18 92/53/18
f 62/53/18 92/53/18 93/56/18
f 66/61/17 96/61/17 95/59/17
f 47/47/15 77/47/15 75/43/15
