# Blender 4.0.0
# www.blender.org
o Roof
v 9.429235 5.843233 10.790590
v 11.061727 5.845297 -12.348500
v 1.742173 8.667939 10.357080
v 0.304198 8.756547 -11.575878
v 8.461944 6.000000 9.255184
v 9.923261 6.000000 -10.775738
v 1.620559 6.000000 8.876658
v 0.349364 6.000000 -10.093628
v 1.620559 8.669315 8.876658
v 0.349364 8.669315 -10.093628
v -15.155331 7.047830 -12.348859
v -14.230212 7.048014 10.789907
v 2.010613 9.872527 -11.917558
v 5.148300 9.959213 10.015470
v 5.585708 7.255601 10.573886
v 10.245323 5.844391 -0.778961
v 5.682968 7.300932 -11.962125
v 1.023111 8.712348 -0.609396
v -6.572359 8.460181 -12.133245
v -14.692782 7.047923 -0.779475
v -4.540956 8.503615 10.402703
v 3.579506 9.915882 -0.951050
v -5.556659 8.481900 -0.865259
v 5.634359 7.278339 -0.694175
v -12.225113 6.000000 8.436090
v -13.250775 6.000000 -9.450484
v -5.067304 6.000000 8.832124
v -5.067304 6.000000 7.876079
v 1.786449 6.000000 8.255288
v -12.218659 7.090767 8.443767
v 0.488645 6.000000 -10.429376
v -13.244373 7.207944 -9.459390
v -5.055105 8.313637 8.823186
v -5.074282 8.313637 7.884115
v 1.796561 9.268213 8.247139
v 0.498283 9.268213 -10.422519
v 1.449081 6.000000 9.038910
v 1.449081 6.000000 8.082865
v 1.449081 9.268213 9.038910
v 1.449081 9.268213 8.082865
v 9.325606 5.535227 10.786345
v 10.971263 5.533163 -12.352248
v 1.638451 8.359942 10.359278
v 0.213972 8.444327 -11.574097
v 8.443990 6.000000 9.579687
v 9.900165 6.000000 -11.099916
v 1.602604 6.000000 9.201161
v 0.326267 6.000000 -10.417807
v 1.602604 8.669315 9.201161
v 0.326267 8.669315 -10.417807
v -15.103765 6.726962 -12.351890
v -14.180976 6.726778 10.787027
v 2.062188 9.551686 -11.922614
v 5.197485 9.637993 10.010692
v 5.482024 6.947569 10.572761
v 10.148592 5.534069 -0.782946
v 5.592611 6.988735 -11.963237
v 0.926286 8.402032 -0.607412
v -6.520788 8.139321 -12.137216
v -14.642360 6.726869 -0.782432
v -4.491746 8.182384 10.398845
v 3.629787 9.594830 -0.955955
v -5.506267 8.160851 -0.869197
v 5.537297 6.968081 -0.695182
v -11.917267 6.000000 8.127626
v -12.907958 6.000000 -9.149085
v -5.392304 6.000000 8.488645
v -5.392304 6.000000 7.532599
v 1.436714 6.000000 7.910441
v -11.923720 7.090767 8.119950
v 0.186986 6.000000 -10.082059
v -12.914360 7.207944 -9.140180
v -5.404503 8.313637 8.497582
v -5.385326 8.313637 7.524563
v 1.426601 9.268213 7.918591
v 0.177348 9.268213 -10.088916
v 1.774081 6.000000 9.038910
v 1.774081 6.000000 8.082865
v 1.774081 9.268213 9.038910
v 1.774081 9.268213 8.082865
vn 0.2967 0.9549 -0.0156
vn 0.0711 -0.0000 0.9975
vn 0.0552 -0.0000 -0.9985
vn -0.1549 0.9879 0.0121
vn -0.1627 0.9866 0.0128
vn -0.1625 0.9867 0.0065
vn -0.1550 0.9879 0.0062
vn 0.3447 0.9387 0.0034
vn 0.2970 0.9549 0.0032
vn 1.0000 -0.0053 -0.0000
vn -0.0552 -0.0067 0.9985
vn -0.0703 0.0023 -0.9975
vn -0.0552 -0.0036 0.9985
vn -0.9983 0.0057 0.0572
vn -1.0000 -0.0000 -0.0000
vn 0.9976 -0.0028 -0.0693
vn -0.2614 -0.9652 -0.0031
vn -0.0711 -0.0000 -0.9975
vn -0.0552 -0.0000 0.9985
vn 0.1549 -0.9879 -0.0121
vn 0.1627 -0.9866 -0.0128
vn 0.1625 -0.9867 -0.0065
vn 0.1550 -0.9879 -0.0062
vn -0.3447 -0.9387 -0.0034
vn -0.2973 -0.9546 -0.0210
vn -0.2624 -0.9648 -0.0186
vn -1.0000 0.0030 -0.0000
vn 0.0552 -0.0067 -0.9985
vn 0.0711 -0.0070 0.9974
vn 0.0552 -0.0036 -0.9985
vn 0.9983 0.0055 -0.0572
vn 1.0000 -0.0000 -0.0000
vn -0.9976 -0.0028 0.0692
vn -0.0506 0.0134 0.9986
vn 0.9523 -0.2977 0.0671
vn -0.0660 0.0227 -0.9976
vn -0.9526 0.2976 0.0636
vn -0.0000 -1.0000 -0.0000
vn -0.9975 -0.0000 0.0711
vn 0.2673 0.9634 -0.0190
vn -0.9985 -0.0000 -0.0552
vn 0.3624 0.9318 0.0201
vn 0.0224 0.0160 -0.9996
vn -0.9871 -0.1554 0.0395
vn 0.0409 -0.0057 0.9991
vn 0.9778 0.1553 -0.1405
vn -0.0539 0.0044 0.9985
vn 0.9581 -0.2785 0.0676
vn -0.0684 0.0141 -0.9976
vn -0.9457 0.3189 0.0633
vn 0.0228 0.0131 -0.9997
vn -0.9876 -0.1517 0.0395
vn 0.0413 -0.0085 0.9991
vn 0.9772 0.1593 -0.1404
vn -0.1569 0.9760 -0.1509
vn -0.0067 1.0000 0.0069
vn -0.1732 0.9722 -0.1578
vn -0.1448 0.9815 0.1253
vn -0.0000 1.0000 -0.0000
vn -0.0000 -0.0000 -1.0000
vn -0.0000 -0.0000 1.0000
vn 0.2614 0.9652 0.0031
vn -0.1479 0.9889 0.0172
vn -0.1549 0.9878 0.0183
vn -0.1481 0.9889 0.0114
vn 0.2972 0.9546 0.0211
vn 0.2624 0.9648 0.0186
vn 0.9998 0.0031 -0.0204
vn -0.0536 0.0041 0.9986
vn -0.0711 -0.0070 -0.9974
vn -0.0531 0.0027 0.9986
vn -0.9983 0.0055 0.0572
vn 0.9976 -0.0033 -0.0694
vn -0.2966 -0.9549 0.0156
vn 0.1479 -0.9889 -0.0172
vn 0.1549 -0.9878 -0.0183
vn 0.1481 -0.9889 -0.0114
vn -0.2970 -0.9549 -0.0032
vn -0.9998 -0.0052 -0.0197
vn 0.0571 0.0042 -0.9984
vn 0.0719 0.0023 0.9974
vn 0.0574 0.0027 -0.9983
vn 0.9983 0.0057 -0.0573
vn -0.9976 -0.0033 0.0693
vn -0.0478 0.0232 0.9986
vn 0.9454 -0.3190 0.0673
vn -0.0634 0.0304 -0.9975
vn -0.9587 0.2774 0.0633
vn 0.0219 0.0193 -0.9996
vn -0.9865 -0.1589 0.0393
vn 0.0403 -0.0028 0.9992
vn 0.9784 0.1519 -0.1405
vn -0.0513 0.0136 0.9986
vn 0.9523 -0.2977 0.0677
vn -0.0655 0.0225 -0.9976
vn -0.9526 0.2976 0.0630
vn 0.0225 0.0160 -0.9996
vn -0.9871 -0.1554 0.0394
vn 0.0408 -0.0058 0.9992
vn 0.9778 0.1553 -0.1404
vn -0.1433 0.9785 0.1481
vn 0.0070 1.0000 0.0064
vn -0.1749 0.9665 0.1877
vn -0.1442 0.9761 0.1624
vt 0.000000 -0.000006
vt 1.000000 0.500349
vt 0.000000 0.500349
vt 0.001301 0.505548
vt 1.379815 0.505548
vt 0.001301 0.667743
vt 0.985382 0.505548
vt 0.001301 0.505548
vt 0.001301 0.667743
vt 1.000000 0.000000
vt 0.000000 0.500344
vt 0.000000 0.000000
vt 1.000000 0.000000
vt 0.000000 0.500344
vt 0.000000 0.000000
vt 1.000000 -0.000006
vt -0.040305 0.505062
vt 0.041865 0.778943
vt 0.041865 0.505062
vt 0.000000 0.505062
vt 1.000000 0.634184
vt 1.000000 0.505062
vt 0.000001 0.505062
vt 1.998743 0.648055
vt 0.000000 0.805264
vt 0.000000 0.505062
vt 1.000000 0.778944
vt 1.000000 0.505062
vt 1.998743 0.505062
vt 0.000000 0.634184
vt -0.041833 0.502309
vt 0.038121 1.001156
vt 0.038121 0.502309
vt 0.000000 0.544181
vt 2.963761 0.323880
vt 0.000001 0.323879
vt -0.040305 0.778943
vt 0.000000 0.505062
vt 2.963762 0.544181
vt 1.000000 0.500344
vt 1.000000 0.500344
vt 0.000000 0.778943
vt 0.000001 0.891944
vt -0.041833 1.001155
s 0
f 24/1/1 4/2/1 18/3/1
f 8/4/2 6/5/2 10/6/2
f 5/7/3 7/8/3 9/9/3
f 21/10/4 22/11/4 23/12/4
f 23/10/5 13/11/5 19/12/5
f 20/13/6 19/14/6 11/15/6
f 12/13/7 23/14/7 20/15/7
f 24/16/8 3/3/8 15/1/8
f 1/1/8 24/2/8 15/3/8
f 16/1/9 17/2/9 24/3/9
f 28/17/10 33/18/10 27/19/10
f 27/20/11 30/21/11 25/22/11
f 31/23/12 32/24/12 36/25/12
f 29/26/13 34/27/13 28/28/13
f 26/29/14 30/30/14 32/24/14
f 37/31/15 40/32/15 38/33/15
f 36/34/16 29/35/16 31/36/16
f 64/1/17 44/2/17 57/16/17
f 48/4/18 50/6/18 46/5/18
f 45/7/19 49/9/19 47/8/19
f 62/11/20 61/10/20 63/12/20
f 53/11/21 63/10/21 59/12/21
f 59/14/22 60/13/22 51/15/22
f 63/14/23 52/13/23 60/15/23
f 43/3/24 64/16/24 55/1/24
f 41/1/25 64/2/25 56/16/25
f 56/1/26 57/2/26 42/16/26
f 67/19/27 74/37/27 68/17/27
f 70/21/28 67/20/28 65/22/28
f 71/23/29 72/24/29 66/29/29
f 74/27/30 69/26/30 68/28/30
f 66/29/31 70/30/31 65/38/31
f 80/32/32 77/31/32 78/33/32
f 71/36/33 75/39/33 76/34/33
f 15/1/34 43/3/34 55/1/34
f 1/1/35 56/16/35 16/16/35
f 17/2/36 42/16/36 57/2/36
f 4/2/37 58/3/37 18/3/37
f 5/7/38 47/8/38 7/8/38
f 8/4/38 46/5/38 6/5/38
f 10/6/39 48/4/39 8/4/39
f 6/5/40 50/6/40 10/6/40
f 7/8/41 49/9/41 9/9/41
f 9/9/42 45/7/42 5/7/42
f 19/12/43 53/11/43 59/12/43
f 11/15/44 60/13/44 20/13/44
f 21/40/45 52/13/45 61/40/45
f 14/41/46 62/11/46 22/11/46
f 1/1/47 55/3/47 41/1/47
f 16/1/48 42/16/48 2/16/48
f 4/2/49 57/16/49 44/2/49
f 18/2/50 43/3/50 3/3/50
f 11/15/51 59/14/51 51/15/51
f 20/15/52 52/13/52 12/13/52
f 14/41/53 61/10/53 54/41/53
f 22/41/54 53/11/54 13/11/54
f 26/29/38 71/23/38 66/29/38
f 25/38/38 66/29/38 65/38/38
f 25/22/38 67/20/38 27/20/38
f 32/24/55 76/25/55 36/25/55
f 28/28/38 69/26/38 29/26/38
f 28/17/38 67/19/38 68/17/38
f 30/30/56 72/24/56 32/24/56
f 30/21/57 73/42/57 70/21/57
f 34/27/58 75/43/58 74/27/58
f 34/37/59 73/18/59 33/18/59
f 38/33/38 77/31/38 37/31/38
f 39/44/59 80/32/59 40/32/59
f 40/32/60 78/33/60 38/33/60
f 37/31/61 79/44/61 39/44/61
f 36/34/59 75/39/59 35/39/59
f 31/36/38 69/35/38 71/36/38
f 24/1/62 17/16/62 4/2/62
f 21/10/63 14/41/63 22/11/63
f 23/10/64 22/41/64 13/11/64
f 20/13/4 23/40/4 19/14/4
f 12/13/65 21/40/65 23/14/65
f 24/16/1 18/2/1 3/3/1
f 1/1/66 16/16/66 24/2/66
f 16/1/67 2/16/67 17/2/67
f 28/17/68 34/37/68 33/18/68
f 27/20/69 33/42/69 30/21/69
f 31/23/70 26/29/70 32/24/70
f 29/26/71 35/43/71 34/27/71
f 26/29/72 25/38/72 30/30/72
f 37/31/15 39/44/15 40/32/15
f 36/34/73 35/39/73 29/35/73
f 64/1/74 58/3/74 44/2/74
f 62/11/75 54/41/75 61/10/75
f 53/11/76 62/41/76 63/10/76
f 59/14/20 63/40/20 60/13/20
f 63/14/77 61/40/77 52/13/77
f 43/3/74 58/2/74 64/16/74
f 41/1/24 55/3/24 64/2/24
f 56/1/78 64/3/78 57/2/78
f 67/19/79 73/18/79 74/37/79
f 70/21/80 73/42/80 67/20/80
f 71/23/81 76/25/81 72/24/81
f 74/27/82 75/43/82 69/26/82
f 66/29/83 72/24/83 70/30/83
f 80/32/32 79/44/32 77/31/32
f 71/36/84 69/35/84 75/39/84
f 15/1/85 3/3/85 43/3/85
f 1/1/86 41/1/86 56/16/86
f 17/2/87 2/16/87 42/16/87
f 4/2/88 44/2/88 58/3/88
f 5/7/38 45/7/38 47/8/38
f 8/4/38 48/4/38 46/5/38
f 10/6/39 50/6/39 48/4/39
f 6/5/40 46/5/40 50/6/40
f 7/8/41 47/8/41 49/9/41
f 9/9/42 49/9/42 45/7/42
f 19/12/89 13/11/89 53/11/89
f 11/15/90 51/15/90 60/13/90
f 21/40/91 12/13/91 52/13/91
f 14/41/92 54/41/92 62/11/92
f 1/1/93 15/3/93 55/3/93
f 16/1/94 56/1/94 42/16/94
f 4/2/95 17/16/95 57/16/95
f 18/2/96 58/2/96 43/3/96
f 11/15/97 19/14/97 59/14/97
f 20/15/98 60/15/98 52/13/98
f 14/41/99 21/10/99 61/10/99
f 22/41/100 62/41/100 53/11/100
f 26/29/38 31/23/38 71/23/38
f 25/38/38 26/29/38 66/29/38
f 25/22/38 65/22/38 67/20/38
f 32/24/101 72/24/101 76/25/101
f 28/28/38 68/28/38 69/26/38
f 28/17/38 27/19/38 67/19/38
f 30/30/102 70/30/102 72/24/102
f 30/21/103 33/42/103 73/42/103
f 34/27/104 35/43/104 75/43/104
f 34/37/59 74/37/59 73/18/59
f 38/33/38 78/33/38 77/31/38
f 39/44/59 79/44/59 80/32/59
f 40/32/60 80/32/60 78/33/60
f 37/31/61 77/31/61 79/44/61
f 36/34/59 76/34/59 75/39/59
f 31/36/38 29/35/38 69/35/38
