# Blender 4.0.0
# www.blender.org
o Plane
v -8.615350 0.000000 6.659360
v 6.921155 0.000000 6.679909
v -10.293645 0.000000 -5.926745
v 5.696000 0.000000 -5.729544
v 9.595429 0.000000 0.699179
v -3.205105 0.000000 5.139237
v 1.538103 0.000000 5.139237
v -3.205105 0.000000 6.648342
v 1.538103 0.000000 6.648342
v -8.615350 3.000000 6.659360
v 6.921155 3.000000 6.679909
v -10.293645 3.000000 -5.926745
v 5.696000 3.000000 -5.729544
v 9.595429 3.000000 0.699179
v -3.205105 3.000000 5.139237
v 1.538103 3.000000 5.139237
v -3.205105 3.000000 6.648342
v 1.538103 3.000000 6.648342
v -8.299508 0.000000 6.297913
v 6.659700 0.000000 6.277365
v -9.934684 0.000000 -5.608079
v 5.457165 0.000000 -5.313181
v 9.116384 0.000000 0.729433
v -3.544516 0.000000 4.799827
v 1.877514 0.000000 4.799827
v -3.544516 0.000000 6.308931
v 1.877514 0.000000 6.308931
v -8.299508 3.000000 6.297913
v 6.659700 3.000000 6.277365
v -9.934684 3.000000 -5.608079
v 5.457165 3.000000 -5.313181
v 9.116384 3.000000 0.729433
v -3.544516 3.000000 4.799827
v 1.877514 3.000000 4.799827
v -3.544516 3.000000 6.308931
v 1.877514 3.000000 6.308931
vn -1.0000 -0.0000 -0.0000
vn 0.9129 -0.0000 0.4082
vn 0.8550 -0.0000 -0.5186
vn 1.0000 -0.0000 -0.0000
vn 0.0020 -0.0000 1.0000
vn 0.0123 -0.0000 -0.9999
vn -0.0000 -0.0000 1.0000
vn -0.9912 -0.0000 0.1322
vn -0.0059 -0.0000 1.0000
vn -0.9144 -0.0000 -0.4049
vn -0.8554 -0.0000 0.5180
vn 0.0023 -0.0000 -1.0000
vn -0.0192 -0.0000 0.9998
vn -0.0000 -0.0000 -1.0000
vn 0.9907 -0.0000 -0.1361
vn -0.0066 -0.0000 -1.0000
vn -0.0000 -1.0000 -0.0000
vn -0.0000 1.0000 -0.0000
vt 0.000000 0.000000
s 0
f 9/1/1 16/1/1 7/1/1
f 14/1/2 2/1/2 5/1/2
f 4/1/3 14/1/3 5/1/3
f 15/1/4 8/1/4 6/1/4
f 8/1/5 10/1/5 1/1/5
f 3/1/6 13/1/6 4/1/6
f 7/1/7 15/1/7 6/1/7
f 1/1/8 12/1/8 3/1/8
f 2/1/9 18/1/9 9/1/9
f 34/1/4 27/1/4 25/1/4
f 20/1/10 32/1/10 23/1/10
f 32/1/11 22/1/11 23/1/11
f 26/1/1 33/1/1 24/1/1
f 28/1/12 26/1/12 19/1/12
f 31/1/13 21/1/13 22/1/13
f 33/1/14 25/1/14 24/1/14
f 30/1/15 19/1/15 21/1/15
f 36/1/16 20/1/16 27/1/16
f 2/1/17 27/1/17 20/1/17
f 5/1/17 22/1/17 4/1/17
f 4/1/17 21/1/17 3/1/17
f 1/1/17 21/1/17 19/1/17
f 5/1/17 20/1/17 23/1/17
f 1/1/17 26/1/17 8/1/17
f 6/1/17 25/1/17 7/1/17
f 7/1/17 27/1/17 9/1/17
f 6/1/17 26/1/17 24/1/17
f 11/1/18 36/1/18 18/1/18
f 14/1/18 31/1/18 32/1/18
f 13/1/18 30/1/18 31/1/18
f 10/1/18 30/1/18 12/1/18
f 14/1/18 29/1/18 11/1/18
f 10/1/18 35/1/18 28/1/18
f 16/1/18 33/1/18 15/1/18
f 16/1/18 36/1/18 34/1/18
f 15/1/18 35/1/18 17/1/18
f 9/1/1 18/1/1 16/1/1
f 14/1/2 11/1/2 2/1/2
f 4/1/3 13/1/3 14/1/3
f 15/1/4 17/1/4 8/1/4
f 8/1/5 17/1/5 10/1/5
f 3/1/6 12/1/6 13/1/6
f 7/1/7 16/1/7 15/1/7
f 1/1/8 10/1/8 12/1/8
f 2/1/9 11/1/9 18/1/9
f 34/1/4 36/1/4 27/1/4
f 20/1/10 29/1/10 32/1/10
f 32/1/11 31/1/11 22/1/11
f 26/1/1 35/1/1 33/1/1
f 28/1/12 35/1/12 26/1/12
f 31/1/13 30/1/13 21/1/13
f 33/1/14 34/1/14 25/1/14
f 30/1/15 28/1/15 19/1/15
f 36/1/16 29/1/16 20/1/16
f 2/1/17 9/1/17 27/1/17
f 5/1/17 23/1/17 22/1/17
f 4/1/17 22/1/17 21/1/17
f 1/1/17 3/1/17 21/1/17
f 5/1/17 2/1/17 20/1/17
f 1/1/17 19/1/17 26/1/17
f 6/1/17 24/1/17 25/1/17
f 7/1/17 25/1/17 27/1/17
f 6/1/17 8/1/17 26/1/17
f 11/1/18 29/1/18 36/1/18
f 14/1/18 13/1/18 31/1/18
f 13/1/18 12/1/18 30/1/18
f 10/1/18 28/1/18 30/1/18
f 14/1/18 32/1/18 29/1/18
f 10/1/18 17/1/18 35/1/18
f 16/1/18 34/1/18 33/1/18
f 16/1/18 18/1/18 36/1/18
f 15/1/18 33/1/18 35/1/18
