# Blender 4.0.0
# www.blender.org
o Walls.002
v -22.507231 2.556255 21.680986
v -22.507231 2.556255 18.057369
v 25.880007 2.556255 23.411655
v -27.922140 2.556255 18.057369
v -27.922140 2.556255 -12.632943
v 27.849556 2.556255 5.528307
v -15.388517 2.556255 -19.821682
v 11.166727 2.556255 -25.217669
v 27.849556 2.556255 -25.217669
v -4.272475 2.556255 21.680986
v -22.507231 7.379649 21.680986
v -22.507231 7.379649 18.057369
v 25.880007 6.796719 23.411655
v -27.922140 5.633145 18.057369
v -27.922140 5.633145 -12.632944
v 27.849556 6.127127 5.528307
v -15.388517 8.939928 -19.821682
v 11.166727 6.776603 -25.217669
v 27.849556 6.127127 -25.217669
v -15.388517 8.249851 -12.632944
v -15.388517 2.556255 -12.632943
v 25.880007 2.556255 5.528307
v 25.880007 6.796719 5.528307
v 11.303411 2.556255 23.411655
v -4.238624 2.556255 19.787399
v 0.800322 2.556255 21.680986
v 0.800322 2.556255 19.787399
v 11.303411 6.856767 23.411655
v -4.238624 12.447886 19.787399
v -4.272475 12.447886 21.680986
v 0.800322 11.320753 21.680986
v 0.800322 11.320753 19.787399
v 11.303411 2.556255 21.680986
v 11.303411 7.636778 21.680986
v 4.802476 9.985885 -19.821682
v 4.802476 2.556255 -19.821682
v 4.802476 9.985885 -18.346914
v 4.802476 2.556255 -18.346914
v 11.166727 6.776603 -18.346914
v 11.166727 2.556255 -18.346914
v -32.294998 4.665689 22.721046
v -32.294998 4.665689 -13.673004
v -32.294998 4.665689 -13.673004
v -32.294998 4.665689 22.721046
v -15.409092 8.394163 21.680986
v -15.409092 2.556255 21.680986
v -23.357449 7.362092 22.721046
v -14.233690 9.054884 22.721046
v -14.233690 9.054884 -13.673003
v -23.357449 7.362092 -13.673004
v -23.171242 6.358480 22.721046
v -14.047483 8.051271 22.721046
v -14.047483 8.051271 -13.673003
v -23.171242 6.358480 -13.673004
v 30.617830 4.876266 24.784252
v 30.617830 4.876266 -26.375820
v 19.384802 9.954639 24.784252
v 19.384802 9.954639 -26.375820
v 26.949903 7.572669 -26.375820
v 23.205563 9.265460 -26.375820
v 23.205563 9.265460 24.784252
v 26.949905 7.572669 24.784252
v 26.873486 6.569057 -26.375820
v 23.129143 8.261848 -26.375820
v 23.129145 8.261848 24.784252
v 26.873487 6.569057 24.784252
v 8.228193 4.876266 -26.375820
v 18.591709 9.985885 23.411655
v 19.384802 10.958251 24.784254
v 19.384804 10.958251 -26.375820
v 8.228193 4.876266 24.784254
v 18.591709 2.556255 23.411655
v 19.508142 9.985885 -25.217669
v 19.508142 2.556255 -25.217669
v 11.896120 7.572669 -26.375820
v 15.640461 9.265460 -26.375820
v 15.640461 9.265460 24.784254
v 11.896118 7.572669 24.784254
v 11.972538 6.569057 -26.375820
v 15.716881 8.261848 -26.375820
v 15.716879 8.261848 24.784254
v 11.972536 6.569057 24.784254
v -14.285591 9.434864 25.177258
v -14.285591 9.434864 23.446587
v 11.712120 7.454363 22.712713
v 11.712120 7.454363 -24.610218
v -3.407829 12.532738 22.712713
v -3.407829 12.532738 -24.610218
v 6.774995 10.150766 -24.610218
v 1.735015 11.843557 -24.610218
v 1.735015 11.843557 22.712713
v 6.774998 10.150766 22.712713
v 6.672134 9.147155 -24.610218
v 1.632151 10.839946 -24.610218
v 1.632154 10.839946 22.712713
v 6.672137 9.147155 22.712713
v -18.424915 7.454363 -24.610218
v -3.407829 13.536348 22.712713
v -3.407826 13.536348 -24.610218
v -18.424915 7.454363 22.712713
v -13.487790 10.150766 -24.610218
v -8.447809 11.843557 -24.610218
v -8.447809 11.843557 22.712713
v -13.487793 10.150766 22.712713
v -13.384930 9.147155 -24.610218
v -8.344946 10.839946 -24.610218
v -8.344950 10.839946 22.712713
v -13.384933 9.147155 22.712713
v -1.719151 2.556255 19.787399
v -1.719151 12.126741 19.787399
v -3.493636 2.556255 -19.821682
v -3.494214 9.687890 -19.842409
v -3.493636 12.655818 -19.821682
v 7.864607 8.853224 21.680986
v 7.864607 2.556255 21.680986
v 11.192189 7.004895 21.736250
vn 1.0000 -0.0000 -0.0000
vn -1.0000 -0.0000 -0.0000
vn -0.0008 -0.0015 -1.0000
vn -0.0000 -0.0000 1.0000
vn -0.0000 -0.0000 -1.0000
vn 0.9998 -0.0000 0.0179
vn -0.9994 -0.0129 0.0321
vn -0.0000 1.0000 -0.0000
vn 0.1824 -0.9832 -0.0000
vn -0.2888 0.9574 -0.0000
vn -0.1824 0.9832 -0.0000
vn 0.4051 0.9143 -0.0000
vn -0.4120 -0.9112 -0.0000
vn 0.5923 0.8057 -0.0000
vn 0.4120 0.9112 -0.0000
vn -0.4120 0.9112 -0.0000
vn 0.4190 -0.9080 -0.0000
vn 0.4120 -0.9112 -0.0000
vn -0.5923 0.8057 -0.0000
vn 0.3127 0.9499 -0.0000
vn -0.3184 -0.9480 -0.0000
vn 0.4793 0.8776 -0.0000
vn 0.3184 0.9480 -0.0000
vn -0.3184 0.9480 -0.0000
vn 0.3243 -0.9459 -0.0000
vn 0.3184 -0.9480 -0.0000
vn -0.4793 0.8776 -0.0000
vn 0.0013 -0.0014 -1.0000
vn -0.0022 0.0070 -1.0000
vn 0.0022 0.0070 -1.0000
vt 0.506988 0.504636
vt 4.984518 0.504631
vt 4.984517 0.742716
vt 0.506988 0.742721
vt 0.503301 0.504637
vt 0.999999 0.504636
vt 1.000000 0.826232
vt 0.503301 0.826232
vt 5.521908 0.787363
vt 2.512429 0.787363
vt 2.512429 0.504634
vt 5.521908 0.504634
vt 1.237777 0.504634
vt 2.991868 0.504632
vt 2.991868 0.992032
vt 1.237777 0.999907
vt 0.009171 0.504635
vt 0.990828 0.504635
vt 0.990828 0.826230
vt 0.009171 0.709784
vt 3.997758 0.504631
vt 3.997758 0.709780
vt 0.011415 0.709785
vt 0.011415 0.504636
vt 0.028765 0.504636
vt 1.000000 0.504635
vt 1.000000 0.884251
vt 0.028765 0.992036
vt -0.998365 0.504635
vt 1.000000 0.504634
vt 1.000000 0.709783
vt -0.998365 0.884251
vt 0.000000 0.504636
vt 0.498906 0.504636
vt 0.498906 0.742721
vt 0.000000 0.787365
vt 0.990826 0.504635
vt 2.518515 0.504633
vt 2.518515 0.999996
vt 0.990826 0.893872
vt 1.255770 0.504633
vt 2.511541 0.504632
vt 2.511541 0.786020
vt 1.255771 0.999998
vt 0.000000 0.504636
vt 1.000000 0.504636
vt 1.000000 0.786024
vt 0.000001 0.786024
vt 0.497296 0.504634
vt 1.000000 0.504634
vt 0.999998 0.840115
vt 0.497294 0.892017
vt 0.499999 0.504637
vt 0.999998 0.504636
vt 1.000000 1.000000
vt 0.500000 1.000000
vt 0.504569 0.504637
vt 0.999999 0.504637
vt 0.504569 1.000000
vt 0.500650 0.504636
vt 0.500650 1.000000
vt 0.000002 1.000000
vt 1.256215 0.504635
vt 1.256214 0.999999
vt 16.507496 0.505327
vt 16.813843 0.505327
vt 16.813843 0.792060
vt 16.517265 0.801938
vt -3.080830 0.505347
vt -2.016656 0.505346
vt -2.016656 1.000710
vt -3.080830 0.786735
vt 0.491997 0.504636
vt 0.491997 1.000000
vt 0.000000 1.000000
vt 0.000001 0.504636
vt 0.017123 0.504636
vt 0.017124 0.826231
vt 2.062005 0.037335
vt 2.019391 0.016028
vt -1.019391 0.016028
vt -1.062825 0.037745
vt 2.019391 0.446045
vt 2.104620 0.446045
vt 2.104620 0.058642
vt 2.019391 0.446044
vt 2.104620 0.446044
vt 2.019391 0.058642
vt -1.104620 0.058642
vt -1.104620 0.446044
vt -1.019391 0.446044
vt -1.019391 0.058642
vt -1.104620 0.446044
vt -1.019391 0.446044
vt 0.000000 0.000000
vt 0.000002 0.504637
vt 0.000001 0.791369
vt 0.000000 0.504635
vt 0.000000 0.742720
vt 0.000000 0.504637
vt 0.000001 1.000000
vt 0.014383 0.504636
vt 1.237777 0.999907
vt 0.014383 1.000000
vt 1.237777 0.506110
vt 2.991868 0.498236
vt 1.237777 0.684217
vt 0.014383 0.506203
vt 1.237777 0.684217
vt -0.535401 0.504636
vt -0.535401 1.000000
s 0
f 6/1/1 9/2/1 19/3/1 16/4/1
f 2/5/2 1/6/2 11/7/2 12/8/2
f 23/9/1 13/10/1 3/11/1 22/12/1
f 111/13/3 7/14/3 17/15/3 112/16/3
f 4/17/4 2/18/4 12/19/4 14/20/4
f 4/21/2 14/22/2 15/23/2 5/24/2
f 7/25/2 21/26/2 20/27/2 17/28/2
f 21/29/5 5/30/5 15/31/5 20/32/5
f 22/33/4 6/34/4 16/35/4 23/36/4
f 46/37/4 10/38/4 30/39/4 45/40/4
f 74/41/5 8/42/5 18/43/5 73/44/5
f 8/45/2 40/46/2 39/47/2 18/48/2
f 115/49/4 33/50/4 34/51/4 114/52/4
f 109/53/4 27/54/4 32/55/4 110/56/4
f 10/57/6 25/58/6 29/55/6 30/59/6
f 27/45/2 26/60/2 31/61/2 32/62/2
f 72/63/4 3/11/4 13/10/4 68/64/4
f 33/65/7 24/66/7 28/67/7 116/68/7
f 40/69/5 38/70/5 37/71/5 39/72/5
f 36/73/1 35/74/1 37/75/1 38/76/1
f 1/77/4 46/37/4 45/40/4 11/78/4
f 42/79/8 43/80/8 44/81/8 41/82/8
f 50/83/5 54/84/5 43/85/5 42/79/5
f 49/86/5 53/87/5 54/85/5 50/88/5
f 41/82/4 44/89/4 51/90/4 47/91/4
f 47/92/4 51/89/4 52/93/4 48/94/4
f 43/95/9 54/95/9 51/95/9 44/95/9
f 54/95/9 53/95/9 52/95/9 51/95/9
f 42/79/10 41/82/10 47/91/10 50/83/10
f 50/88/11 47/92/11 48/94/11 49/86/11
f 61/88/12 60/92/12 70/91/12 69/86/12
f 65/95/13 57/95/13 58/95/13 64/95/13
f 60/92/5 64/89/5 58/90/5 70/91/5
f 24/96/4 72/63/4 68/64/4 28/97/4
f 62/83/4 66/84/4 55/85/4
f 69/86/4 57/87/4 65/85/4 61/88/4
f 61/86/4 65/87/4 66/85/4 62/88/4
f 56/82/5 63/90/5 59/91/5
f 59/92/5 63/89/5 64/93/5 60/94/5
f 55/95/13 66/95/13 63/95/13 56/95/13
f 66/95/13 65/95/13 64/95/13 63/95/13
f 55/79/14 56/82/14 59/91/14 62/83/14
f 62/88/15 59/92/15 60/94/15 61/86/15
f 77/88/16 69/86/16 70/91/16 76/92/16
f 81/95/17 80/95/17 58/95/17 57/95/17
f 76/92/5 70/91/5 58/90/5 80/89/5
f 9/98/5 74/41/5 73/44/5 19/99/5
f 78/83/4 71/85/4 82/84/4
f 69/86/4 77/88/4 81/85/4 57/87/4
f 77/86/4 78/88/4 82/85/4 81/87/4
f 67/82/5 75/91/5 79/90/5
f 75/92/5 76/94/5 80/93/5 79/89/5
f 71/95/18 67/95/18 79/95/18 82/95/18
f 82/95/18 79/95/18 80/95/18 81/95/18
f 71/79/19 78/83/19 75/91/19 67/82/19
f 78/88/16 77/86/16 76/94/16 75/92/16
f 91/88/20 90/92/20 99/91/20 98/86/20
f 95/95/21 87/95/21 88/95/21 94/95/21
f 90/92/5 94/89/5 88/90/5 99/91/5
f 92/83/4 96/84/4 85/85/4
f 98/86/4 87/87/4 95/85/4 91/88/4
f 91/86/4 95/87/4 96/85/4 92/88/4
f 86/82/5 93/90/5 89/91/5
f 89/92/5 93/89/5 94/93/5 90/94/5
f 85/95/21 96/95/21 93/95/21 86/95/21
f 96/95/21 95/95/21 94/95/21 93/95/21
f 85/79/22 86/82/22 89/91/22 92/83/22
f 92/88/23 89/92/23 90/94/23 91/86/23
f 103/88/24 98/86/24 99/91/24 102/92/24
f 107/95/25 106/95/25 88/95/25 87/95/25
f 102/92/5 99/91/5 88/90/5 106/89/5
f 104/83/4 100/85/4 108/84/4
f 98/86/4 103/88/4 107/85/4 87/87/4
f 103/86/4 104/88/4 108/85/4 107/87/4
f 97/82/5 101/91/5 105/90/5
f 101/92/5 102/94/5 106/93/5 105/89/5
f 100/95/26 97/95/26 105/95/26 108/95/26
f 108/95/26 105/95/26 106/95/26 107/95/26
f 100/79/27 104/83/27 101/91/27 97/82/27
f 104/88/24 103/86/24 102/94/24 101/92/24
f 25/100/4 109/53/4 110/56/4 29/101/4
f 36/102/28 111/13/28 112/103/28 35/104/28
f 112/105/29 17/106/29 113/107/29
f 35/108/30 112/105/30 113/109/30
f 26/110/4 115/49/4 114/52/4 31/111/4
l 84 83
