# Blender 4.0.0
# www.blender.org
o Walls.003
v 5.373928 0.538667 21.826809
v 5.373928 0.824971 21.826809
v 6.447968 0.538667 21.826809
v 6.447968 0.824971 21.826809
v 5.373928 0.538667 21.181847
v 5.373928 0.824971 21.181847
v 6.447968 0.538667 21.181847
v 6.447968 0.824971 21.181847
v 5.580332 0.824971 21.826809
v 6.241564 0.824971 21.826809
v 5.580332 0.824971 21.181847
v 6.241564 0.824971 21.181847
v 5.467100 1.445405 21.826809
v 6.354796 1.445405 21.826809
v 5.467100 1.445405 21.181847
v 6.354796 1.445405 21.181847
v 5.746309 1.785599 21.826809
v 6.075587 1.785599 21.826809
v 5.746309 1.785599 21.181847
v 6.075587 1.785599 21.181847
v 5.467100 0.824971 21.826809
v 6.354796 0.824971 21.826809
v 5.580332 1.405626 21.826809
v 6.241564 1.405626 21.826809
v 5.680793 1.934613 21.826809
v 6.141103 1.934613 21.826809
v 5.467100 0.824971 21.181847
v 6.354796 0.824971 21.181847
v 5.910948 2.005296 21.826809
v 5.580332 1.405626 21.181847
v 5.910948 1.856282 21.826809
v 6.354796 1.445405 21.504328
v 5.467100 0.824971 21.504328
v 6.141103 1.934613 21.504328
v 5.467100 1.445405 21.504328
v 5.680793 1.934613 21.504328
v 6.354796 0.824971 21.504328
v 5.910948 2.005296 21.504328
v 6.241564 1.405626 21.181847
v 5.680793 1.934613 21.181847
v 6.141103 1.934613 21.181847
v 5.910948 2.005296 21.181847
v 5.910948 1.856282 21.181847
v 6.241564 0.824971 21.752348
v 6.241564 1.405626 21.752348
v 5.580332 0.824971 21.752348
v 5.580332 1.405626 21.752348
v 5.746309 1.785599 21.752348
v 6.075587 1.785599 21.752348
v 5.910948 0.824971 21.752348
v 5.910948 1.856282 21.752348
v 5.881554 1.878931 21.801256
v 5.940341 1.878931 21.801256
v 5.881554 1.878931 21.685658
v 5.940341 1.878931 21.685658
v 5.881554 0.799480 21.801256
v 5.940341 0.799480 21.801256
v 5.881554 0.799480 21.685658
v 5.940341 0.799480 21.685658
v 6.321071 1.377888 21.810640
v 6.321071 1.300523 21.810640
v 6.321071 1.377888 21.695040
v 6.321071 1.300523 21.695040
v 5.500824 1.377888 21.810640
v 5.500824 1.300523 21.810640
v 5.500824 1.377888 21.695040
v 5.500824 1.300523 21.695040
v 6.241564 0.824971 21.256308
v 6.241564 1.405626 21.256308
v 5.580332 0.824971 21.256308
v 5.580332 1.405626 21.256308
v 5.746309 1.785599 21.256308
v 6.075587 1.785599 21.256308
v 5.910948 0.824971 21.256308
v 5.910948 1.856282 21.256308
v 5.881554 1.878931 21.207399
v 5.940341 1.878931 21.207399
v 5.881554 1.878931 21.322998
v 5.940341 1.878931 21.322998
v 5.881554 0.799480 21.207399
v 5.940341 0.799480 21.207399
v 5.881554 0.799480 21.322998
v 5.940341 0.799480 21.322998
v 6.321071 1.377888 21.198015
v 5.373928 0.538667 21.504328
v 5.373928 0.824971 21.504328
v 6.447968 0.538667 21.504328
v 6.447968 0.824971 21.504328
v 6.321071 1.300523 21.198015
v 6.321071 1.377888 21.313616
v 6.321071 1.300523 21.313616
v 5.500824 1.377888 21.198015
v 5.500824 1.300523 21.198015
v 5.500824 1.377888 21.313616
v 5.500824 1.300523 21.313616
vn -0.0000 -0.0000 1.0000
vn -0.0000 -0.0000 -1.0000
vn -0.9164 0.4003 -0.0000
vn -1.0000 -0.0000 -0.0000
vn -0.9164 -0.4003 -0.0000
vn 0.9164 -0.4003 -0.0000
vn 0.2936 0.9559 -0.0000
vn 0.3945 -0.9189 -0.0000
vn 1.0000 -0.0000 -0.0000
vn 0.9164 0.4003 -0.0000
vn -0.2936 0.9559 -0.0000
vn -0.0000 -1.0000 -0.0000
vn -0.3945 -0.9189 -0.0000
vn -0.0000 1.0000 -0.0000
vt 0.271118 0.129138
vt 0.492428 0.129138
vt 0.492428 0.150569
vt 0.271118 0.150569
vt 0.733374 0.078352
vt 0.593504 0.078352
vt 0.593504 0.094009
vt 0.733374 0.094009
vt 0.903197 0.078352
vt 0.903197 0.094009
vt 0.303883 0.111866
vt 0.443753 0.111866
vt 0.443753 0.094009
vt 0.303883 0.094009
vt 0.134059 0.111866
vt 0.134059 0.094009
vt 0.443753 0.078352
vt 0.518628 0.094009
vt 0.518628 0.078352
vt 0.733374 0.067808
vt 0.593504 0.067808
vt 0.443753 0.067808
vt 0.303883 0.067808
vt 0.303883 0.078352
vt 0.134059 0.078510
vt 0.518629 0.111866
vt 0.593504 0.111866
vt 0.518628 0.067808
vt 0.903197 0.067808
vt 0.903197 0.111866
vt 0.733374 0.111866
vt 0.526559 0.492510
vt 0.940004 0.492510
vt 0.940004 0.487901
vt 0.526559 0.487901
vt 0.443229 0.829409
vt 0.424272 0.829409
vt 0.424272 0.832474
vt 0.424272 0.835539
vt 0.443229 0.835539
vt 0.455634 0.834000
vt 0.457941 0.832474
vt 0.455634 0.830948
vt 0.054629 0.481013
vt 0.054629 0.487901
vt 0.468074 0.487901
vt 0.468074 0.481013
vt 0.134059 0.067808
vt 0.526559 0.481013
vt 0.940004 0.481013
vt 0.940004 0.499398
vt 0.526559 0.499398
vt 0.468074 0.499398
vt 0.054629 0.499398
vt 0.054629 0.492510
vt 0.468074 0.492510
vt 0.271118 0.139853
vt 0.492428 0.139853
s 0
f 1/1/1 3/2/1 4/3/1 2/4/1
f 39/5/2 20/6/2 41/7/2 16/8/2
f 12/9/2 39/5/2 16/8/2 28/10/2
f 5/1/2 6/4/2 8/3/2 7/2/2
f 35/11/3 36/12/3 40/13/3 15/14/3
f 33/15/4 35/11/4 15/14/4 27/16/4
f 35/11/3 13/14/3 25/13/3 36/12/3
f 33/15/4 21/16/4 13/14/4 35/11/4
f 24/5/1 14/8/1 26/7/1 18/6/1
f 19/17/2 40/13/2 42/18/2 43/19/2
f 39/5/5 69/20/5 73/21/5 20/6/5
f 10/9/1 22/10/1 14/8/1 24/5/1
f 18/6/1 26/7/1 29/18/1 31/19/1
f 19/17/6 72/22/6 71/23/6 30/24/6
f 9/25/1 23/24/1 13/14/1 21/16/1
f 41/7/7 42/18/7 38/26/7 34/27/7
f 23/24/1 17/17/1 25/13/1 13/14/1
f 43/19/8 75/28/8 72/22/8 19/17/8
f 12/9/4 68/29/4 69/20/4 39/5/4
f 17/17/1 31/19/1 29/18/1 25/13/1
f 37/30/9 32/31/9 14/8/9 22/10/9
f 32/31/10 34/27/10 26/7/10 14/8/10
f 25/13/11 29/18/11 38/26/11 36/12/11
f 32/31/10 16/8/10 41/7/10 34/27/10
f 26/7/7 34/27/7 38/26/7 29/18/7
f 30/24/2 15/14/2 40/13/2 19/17/2
f 37/30/9 28/10/9 16/8/9 32/31/9
f 80/32/2 76/33/2 77/34/2 81/35/2
f 20/6/2 43/19/2 42/18/2 41/7/2
f 69/36/2 68/37/2 74/38/2 70/39/2 71/40/2 72/41/2 75/42/2 73/43/2
f 95/44/12 93/45/12 89/46/12 91/47/12
f 30/24/9 71/23/9 70/48/9 11/25/9
f 40/13/11 36/12/11 38/26/11 42/18/11
f 11/25/2 27/16/2 15/14/2 30/24/2
f 31/19/8 17/17/8 48/22/8 51/28/8
f 45/36/1 49/43/1 51/42/1 48/41/1 47/40/1 46/39/1 50/38/1 44/37/1
f 17/17/6 23/24/6 47/23/6 48/22/6
f 23/24/9 9/25/9 46/48/9 47/23/9
f 59/49/9 55/50/9 53/34/9 57/35/9
f 10/9/4 24/5/4 45/20/4 44/29/4
f 24/5/5 18/6/5 49/21/5 45/20/5
f 54/51/4 58/52/4 56/32/4 52/33/4
f 18/6/13 31/19/13 51/28/13 49/21/13
f 56/32/1 57/35/1 53/34/1 52/33/1
f 67/44/12 63/47/12 61/46/12 65/45/12
f 62/53/14 66/54/14 64/55/14 60/56/14
f 64/55/1 65/45/1 61/46/1 60/56/1
f 8/1/9 88/57/9 87/58/9 7/2/9
f 83/49/9 81/35/9 77/34/9 79/50/9
f 78/51/4 76/33/4 80/32/4 82/52/4
f 92/55/2 84/56/2 89/46/2 93/45/2
f 20/6/13 73/21/13 75/28/13 43/19/13
f 90/53/14 84/56/14 92/55/14 94/54/14
f 7/1/12 87/57/12 85/58/12 5/2/12
f 5/1/4 85/57/4 86/58/4 6/2/4
f 6/1/14 86/57/14 88/58/14 8/2/14
f 4/1/9 3/2/9 87/58/9 88/57/9
f 2/1/14 4/2/14 88/58/14 86/57/14
f 1/1/4 2/2/4 86/58/4 85/57/4
f 3/1/12 1/2/12 85/58/12 87/57/12
