# Blender 4.0.0
# www.blender.org
o Walls.001
v 11.867826 0.896024 -0.231701
v 11.867826 1.182328 -0.231701
v 11.867827 0.896024 0.842340
v 11.867827 1.182328 0.842340
v 12.534696 0.896024 -0.231701
v 12.534696 1.182328 -0.231701
v 12.534697 0.896024 0.842339
v 12.534697 1.182328 0.842339
v 11.867826 1.182328 -0.025297
v 11.867827 1.182328 0.635935
v 12.534696 1.182328 -0.025298
v 12.534697 1.182328 0.635935
v 11.867826 1.802761 -0.138529
v 11.867827 1.802761 0.749167
v 12.534696 1.802761 -0.138530
v 12.534697 1.802761 0.749167
v 11.867826 2.142955 0.140680
v 11.867827 2.142955 0.469958
v 12.534696 2.142955 0.140680
v 12.534697 2.142955 0.469958
v 11.867826 1.182328 -0.138529
v 11.867827 1.182328 0.749167
v 11.867826 1.762983 -0.025297
v 11.867827 1.762983 0.635935
v 11.867826 2.291969 0.075164
v 11.867827 2.291969 0.535474
v 12.534696 1.182328 -0.138530
v 12.534697 1.182328 0.749167
v 11.867827 2.362652 0.305319
v 12.534696 1.762983 -0.025298
v 11.867827 2.213638 0.305319
v 12.201262 1.802761 0.749167
v 12.201262 1.182328 -0.138529
v 12.201262 2.291969 0.535474
v 12.201262 1.802761 -0.138529
v 12.201262 2.291969 0.075163
v 12.201262 1.182328 0.749167
v 12.201262 2.362652 0.305319
v 12.534697 1.762983 0.635935
v 12.534696 2.291969 0.075163
v 12.534697 2.291969 0.535474
v 12.534696 2.362652 0.305319
v 12.534696 2.213638 0.305319
v 11.910355 1.182328 0.635935
v 11.910355 1.762983 0.635935
v 11.910355 1.182328 -0.025297
v 11.910355 1.762983 -0.025297
v 11.910355 2.142955 0.140680
v 11.910355 2.142955 0.469958
v 11.910355 2.213638 0.305319
v 11.894248 2.236288 0.275925
v 11.894248 2.236288 0.334713
v 12.013773 2.236288 0.275925
v 12.013773 2.236288 0.334713
v 11.894248 1.156836 0.275925
v 11.894248 1.156836 0.334713
v 12.013773 1.156836 0.275925
v 12.013773 1.156836 0.334713
v 11.884546 1.735244 0.715442
v 11.884546 1.657879 0.715442
v 12.004071 1.735244 0.715442
v 12.004071 1.657879 0.715442
v 11.884545 1.735244 -0.104805
v 11.884545 1.657880 -0.104805
v 12.004071 1.735244 -0.104805
v 12.004071 1.657880 -0.104805
v 12.498841 1.182328 0.635935
v 12.498841 1.762983 0.635935
v 12.498841 1.182328 -0.025298
v 12.498841 1.762983 -0.025298
v 12.498841 2.142955 0.140680
v 12.498841 2.142955 0.469958
v 12.498841 2.213638 0.305319
v 12.508275 2.236288 0.275925
v 12.508275 2.236288 0.334712
v 12.388750 2.236288 0.275925
v 12.388750 2.236288 0.334712
v 12.508275 1.156836 0.275925
v 12.508275 1.156836 0.334712
v 12.388750 1.156836 0.275925
v 12.388750 1.156836 0.334712
v 12.517978 1.735244 0.715442
v 12.201262 0.896024 -0.231701
v 12.201262 1.182328 -0.231701
v 12.201262 0.896024 0.842339
v 12.201262 1.182328 0.842339
v 12.517978 1.657879 0.715442
v 12.398452 1.735244 0.715442
v 12.398452 1.657879 0.715442
v 12.517977 1.735244 -0.104805
v 12.517977 1.657880 -0.104805
v 12.398452 1.735244 -0.104805
v 12.398452 1.657880 -0.104805
v 11.910355 1.182328 0.635935
v 11.910355 1.762983 0.635935
v 11.910355 1.182328 -0.025297
v 11.910355 1.762983 -0.025297
v 11.910355 2.142955 0.140680
v 11.910355 2.142955 0.469958
v 11.910355 1.182328 0.305319
v 11.910355 2.213638 0.305319
v 12.498841 1.182328 0.635935
v 12.498841 1.762983 0.635935
v 12.498841 1.182328 -0.025298
v 12.498841 1.762983 -0.025298
v 12.498841 2.142955 0.140680
v 12.498841 2.142955 0.469958
v 12.498841 1.182328 0.305319
v 12.498841 2.213638 0.305319
vn -1.0000 -0.0000 -0.0000
vn 1.0000 -0.0000 -0.0000
vn -0.0000 0.4003 -0.9164
vn -0.0000 -0.0000 -1.0000
vn -0.0000 -0.4003 -0.9164
vn -0.0000 -0.4003 0.9164
vn -0.0000 0.9559 0.2936
vn -0.0000 -0.9189 0.3945
vn -0.0000 -0.0000 1.0000
vn -0.0000 0.4003 0.9164
vn -0.0000 0.9559 -0.2936
vn -0.0000 -1.0000 -0.0000
vn -0.0000 -0.9189 -0.3945
vn -0.0000 1.0000 -0.0000
vt 0.492428 0.129138
vt 0.271118 0.150569
vt 0.271118 0.129138
vt 0.593504 0.078352
vt 0.733374 0.094009
vt 0.733374 0.078352
vt 0.903197 0.094009
vt 0.903197 0.078352
vt 0.443753 0.111866
vt 0.303883 0.094009
vt 0.303883 0.111866
vt 0.134059 0.094009
vt 0.134059 0.111866
vt 0.443753 0.094009
vt 0.518628 0.078352
vt 0.443753 0.078352
vt 0.733374 0.067808
vt 0.593504 0.094009
vt 0.443753 0.067808
vt 0.303883 0.078352
vt 0.134059 0.078510
vt 0.518628 0.094009
vt 0.593504 0.111866
vt 0.518628 0.067808
vt 0.903197 0.067808
vt 0.733374 0.111866
vt 0.903197 0.111866
vt 0.940004 0.492510
vt 0.526559 0.487901
vt 0.526559 0.492510
vt 0.122770 0.940747
vt 0.122770 0.945486
vt 0.135029 0.945486
vt 0.054629 0.487901
vt 0.468074 0.481013
vt 0.054629 0.481013
vt 0.303883 0.067808
vt 0.128924 0.937646
vt 0.147287 0.940747
vt 0.940004 0.481013
vt 0.526559 0.481013
vt 0.526559 0.499398
vt 0.940004 0.499398
vt 0.593504 0.067808
vt 0.054629 0.499398
vt 0.468074 0.492510
vt 0.468074 0.499398
vt 0.054629 0.492510
vt 0.271118 0.139853
vt 0.141133 0.937646
vt 0.147287 0.945486
vt 0.135029 0.937069
vt 0.492428 0.150569
vt 0.518629 0.111866
vt 0.940004 0.487901
vt 0.468074 0.487901
vt 0.134059 0.067808
vt 0.492428 0.139853
s 0
f 3/1/1 2/2/1 1/3/1
f 20/4/2 16/5/2 39/6/2
f 39/6/2 28/7/2 12/8/2
f 6/2/2 7/1/2 5/3/2
f 36/9/3 15/10/3 35/11/3
f 35/11/4 27/12/4 33/13/4
f 13/10/3 36/9/3 35/11/3
f 21/12/4 35/11/4 33/13/4
f 14/5/1 18/4/1 24/6/1
f 40/14/2 43/15/2 19/16/2
f 68/17/5 20/4/5 39/6/5
f 22/7/1 24/6/1 10/8/1
f 26/18/1 31/15/1 18/4/1
f 71/19/6 30/20/6 19/16/6
f 23/20/1 21/12/1 9/21/1
f 42/22/7 34/23/7 41/18/7
f 17/16/1 13/10/1 23/20/1
f 73/24/8 19/16/8 43/15/8
f 67/25/4 39/6/4 12/8/4
f 31/15/1 25/14/1 17/16/1
f 32/26/9 22/7/9 37/27/9
f 34/23/10 14/5/10 32/26/10
f 29/22/11 36/9/11 25/14/11
f 16/5/10 34/23/10 32/26/10
f 34/23/7 29/22/7 26/18/7
f 15/10/2 19/16/2 30/20/2
f 28/7/9 32/26/9 37/27/9
f 74/28/2 79/29/2 78/30/2
f 43/15/2 41/18/2 20/4/2
f 103/31/2 102/32/2 108/33/2
f 91/34/12 89/35/12 93/36/12
f 70/37/9 11/21/9 30/20/9
f 36/9/11 42/22/11 40/14/11
f 27/12/2 30/20/2 11/21/2
f 31/15/8 48/19/8 50/24/8
f 107/38/2 103/31/2 105/39/2
f 17/16/6 47/37/6 48/19/6
f 9/21/9 47/37/9 23/20/9
f 54/40/9 56/29/9 58/41/9
f 24/6/4 44/25/4 10/8/4
f 18/4/5 45/17/5 24/6/5
f 57/42/4 51/28/4 53/43/4
f 18/4/13 50/24/13 49/44/13
f 56/29/1 51/28/1 55/30/1
f 62/35/12 64/34/12 66/36/12
f 65/45/14 59/46/14 61/47/14
f 64/34/1 59/46/1 63/48/1
f 86/49/9 7/1/9 8/3/9
f 79/29/9 77/40/9 81/41/9
f 74/28/4 80/42/4 76/43/4
f 82/46/2 91/34/2 90/48/2
f 72/44/13 43/15/13 20/4/13
f 82/46/14 92/45/14 88/47/14
f 85/49/12 5/1/12 7/3/12
f 83/49/4 6/1/4 5/3/4
f 84/49/14 8/1/14 6/3/14
f 3/1/9 86/49/9 4/3/9
f 4/1/14 84/49/14 2/3/14
f 2/1/4 83/49/4 1/3/4
f 1/1/12 85/49/12 3/3/12
f 105/39/2 106/50/2 107/38/2
f 97/39/1 96/51/1 100/33/1
f 108/33/2 104/51/2 105/39/2
f 103/31/2 108/33/2 105/39/2
f 106/50/2 109/52/2 107/38/2
f 94/32/1 95/31/1 100/33/1
f 95/31/1 99/38/1 98/50/1
f 100/33/1 95/31/1 97/39/1
f 99/38/1 101/52/1 98/50/1
f 98/50/1 97/39/1 95/31/1
f 3/1/1 4/53/1 2/2/1
f 20/4/2 41/18/2 16/5/2
f 39/6/2 16/5/2 28/7/2
f 6/2/2 8/53/2 7/1/2
f 36/9/3 40/14/3 15/10/3
f 35/11/4 15/10/4 27/12/4
f 13/10/3 25/14/3 36/9/3
f 21/12/4 13/10/4 35/11/4
f 14/5/1 26/18/1 18/4/1
f 40/14/2 42/22/2 43/15/2
f 68/17/5 72/44/5 20/4/5
f 22/7/1 14/5/1 24/6/1
f 26/18/1 29/22/1 31/15/1
f 71/19/6 70/37/6 30/20/6
f 23/20/1 13/10/1 21/12/1
f 42/22/7 38/54/7 34/23/7
f 17/16/1 25/14/1 13/10/1
f 73/24/8 71/19/8 19/16/8
f 67/25/4 68/17/4 39/6/4
f 31/15/1 29/22/1 25/14/1
f 32/26/9 14/5/9 22/7/9
f 34/23/10 26/18/10 14/5/10
f 29/22/11 38/54/11 36/9/11
f 16/5/10 41/18/10 34/23/10
f 34/23/7 38/54/7 29/22/7
f 15/10/2 40/14/2 19/16/2
f 28/7/9 16/5/9 32/26/9
f 74/28/2 75/55/2 79/29/2
f 43/15/2 42/22/2 41/18/2
f 91/34/12 87/56/12 89/35/12
f 70/37/9 69/57/9 11/21/9
f 36/9/11 38/54/11 42/22/11
f 27/12/2 15/10/2 30/20/2
f 31/15/8 17/16/8 48/19/8
f 17/16/6 23/20/6 47/37/6
f 9/21/9 46/57/9 47/37/9
f 54/40/9 52/55/9 56/29/9
f 24/6/4 45/17/4 44/25/4
f 18/4/5 49/44/5 45/17/5
f 57/42/4 55/30/4 51/28/4
f 18/4/13 31/15/13 50/24/13
f 56/29/1 52/55/1 51/28/1
f 62/35/12 60/56/12 64/34/12
f 65/45/14 63/48/14 59/46/14
f 64/34/1 60/56/1 59/46/1
f 86/49/9 85/58/9 7/1/9
f 79/29/9 75/55/9 77/40/9
f 74/28/4 78/30/4 80/42/4
f 82/46/2 87/56/2 91/34/2
f 72/44/13 73/24/13 43/15/13
f 82/46/14 90/48/14 92/45/14
f 85/49/12 83/58/12 5/1/12
f 83/49/4 84/58/4 6/1/4
f 84/49/14 86/58/14 8/1/14
f 3/1/9 85/58/9 86/49/9
f 4/1/14 86/58/14 84/49/14
f 2/1/4 84/58/4 83/49/4
f 1/1/12 83/58/12 85/49/12
o Walls.002
v 11.867825 0.896024 -4.528196
v 11.867825 1.182328 -4.528196
v 11.867826 0.896024 -3.454156
v 11.867826 1.182328 -3.454156
v 12.534694 0.896024 -4.528197
v 12.534694 1.182328 -4.528197
v 12.534695 0.896024 -3.454156
v 12.534695 1.182328 -3.454156
v 11.867825 1.182328 -4.321793
v 11.867826 1.182328 -3.660560
v 12.534694 1.182328 -4.321793
v 12.534695 1.182328 -3.660561
v 11.867825 1.802761 -4.435025
v 11.867826 1.802761 -3.547328
v 12.534694 1.802761 -4.435025
v 12.534695 1.802761 -3.547329
v 11.867825 2.142955 -4.155816
v 11.867826 2.142955 -3.826537
v 12.534694 2.142955 -4.155816
v 12.534695 2.142955 -3.826538
v 11.867825 1.182328 -4.435025
v 11.867826 1.182328 -3.547328
v 11.867825 1.762983 -4.321793
v 11.867826 1.762983 -3.660560
v 11.867825 2.291969 -4.221332
v 11.867826 2.291969 -3.761021
v 12.534694 1.182328 -4.435025
v 12.534695 1.182328 -3.547329
v 11.867826 2.362652 -3.991176
v 12.534694 1.762983 -4.321793
v 11.867826 2.213638 -3.991176
v 12.201260 1.802761 -3.547328
v 12.201260 1.182328 -4.435025
v 12.201260 2.291969 -3.761021
v 12.201260 1.802761 -4.435025
v 12.201260 2.291969 -4.221332
v 12.201260 1.182328 -3.547328
v 12.201260 2.362652 -3.991177
v 12.534695 1.762983 -3.660561
v 12.534694 2.291969 -4.221332
v 12.534695 2.291969 -3.761022
v 12.534694 2.362652 -3.991177
v 12.534694 2.213638 -3.991177
v 11.910353 1.182328 -3.660560
v 11.910353 1.762983 -3.660560
v 11.910353 1.182328 -4.321793
v 11.910353 1.762983 -4.321793
v 11.910353 2.142955 -4.155816
v 11.910353 2.142955 -3.826537
v 11.910353 2.213638 -3.991176
v 11.894246 2.236288 -4.020570
v 11.894246 2.236288 -3.961783
v 12.013771 2.236288 -4.020570
v 12.013771 2.236288 -3.961783
v 11.894246 1.156836 -4.020570
v 11.894246 1.156836 -3.961783
v 12.013771 1.156836 -4.020570
v 12.013771 1.156836 -3.961783
v 11.884544 1.735244 -3.581053
v 11.884544 1.657879 -3.581053
v 12.004069 1.735244 -3.581053
v 12.004069 1.657879 -3.581053
v 11.884543 1.735244 -4.401300
v 11.884543 1.657880 -4.401300
v 12.004069 1.735244 -4.401300
v 12.004069 1.657880 -4.401300
v 12.498839 1.182328 -3.660561
v 12.498839 1.762983 -3.660561
v 12.498839 1.182328 -4.321793
v 12.498839 1.762983 -4.321793
v 12.498839 2.142955 -4.155816
v 12.498839 2.142955 -3.826538
v 12.498839 2.213638 -3.991177
v 12.508273 2.236288 -4.020570
v 12.508273 2.236288 -3.961783
v 12.388748 2.236288 -4.020570
v 12.388748 2.236288 -3.961783
v 12.508273 1.156836 -4.020570
v 12.508273 1.156836 -3.961783
v 12.388748 1.156836 -4.020570
v 12.388748 1.156836 -3.961783
v 12.517976 1.735244 -3.581053
v 12.201260 0.896024 -4.528196
v 12.201260 1.182328 -4.528196
v 12.201260 0.896024 -3.454156
v 12.201260 1.182328 -3.454156
v 12.517976 1.657879 -3.581053
v 12.398450 1.735244 -3.581053
v 12.398450 1.657879 -3.581053
v 12.517975 1.735244 -4.401300
v 12.517975 1.657880 -4.401300
v 12.398450 1.735244 -4.401300
v 12.398450 1.657880 -4.401300
v 11.910353 1.182328 -3.660560
v 11.910353 1.762983 -3.660560
v 11.910353 1.182328 -4.321793
v 11.910353 1.762983 -4.321793
v 11.910353 2.142955 -4.155816
v 11.910353 2.142955 -3.826537
v 11.910353 1.182328 -3.991176
v 11.910353 2.213638 -3.991176
v 12.498839 1.182328 -3.660561
v 12.498839 1.762983 -3.660561
v 12.498839 1.182328 -4.321793
v 12.498839 1.762983 -4.321793
v 12.498839 2.142955 -4.155816
v 12.498839 2.142955 -3.826538
v 12.498839 1.182328 -3.991177
v 12.498839 2.213638 -3.991177
vn -1.0000 -0.0000 -0.0000
vn 1.0000 -0.0000 -0.0000
vn -0.0000 0.4003 -0.9164
vn -0.0000 -0.0000 -1.0000
vn -0.0000 -0.4003 -0.9164
vn -0.0000 -0.4003 0.9164
vn -0.0000 0.9559 0.2936
vn -0.0000 -0.9189 0.3945
vn -0.0000 -0.0000 1.0000
vn -0.0000 0.4003 0.9164
vn -0.0000 0.9559 -0.2936
vn -0.0000 -1.0000 -0.0000
vn -0.0000 -0.9189 -0.3945
vn -0.0000 1.0000 -0.0000
vt 0.492428 0.129138
vt 0.271118 0.150569
vt 0.271118 0.129138
vt 0.593504 0.078352
vt 0.733374 0.094009
vt 0.733374 0.078352
vt 0.903197 0.094009
vt 0.903197 0.078352
vt 0.443753 0.111866
vt 0.303883 0.094009
vt 0.303883 0.111866
vt 0.134059 0.094009
vt 0.134059 0.111866
vt 0.443753 0.094009
vt 0.518628 0.078352
vt 0.443753 0.078352
vt 0.733374 0.067808
vt 0.593504 0.094009
vt 0.443753 0.067808
vt 0.303883 0.078352
vt 0.134059 0.078510
vt 0.518628 0.094009
vt 0.593504 0.111866
vt 0.518628 0.067808
vt 0.903197 0.067808
vt 0.733374 0.111866
vt 0.903197 0.111866
vt 0.940004 0.492510
vt 0.526559 0.487901
vt 0.526559 0.492510
vt 0.122770 0.940747
vt 0.122770 0.945486
vt 0.135029 0.945486
vt 0.054629 0.487901
vt 0.468074 0.481013
vt 0.054629 0.481013
vt 0.303883 0.067808
vt 0.128924 0.937646
vt 0.147287 0.940747
vt 0.940004 0.481013
vt 0.526559 0.481013
vt 0.526559 0.499398
vt 0.940004 0.499398
vt 0.593504 0.067808
vt 0.054629 0.499398
vt 0.468074 0.492510
vt 0.468074 0.499398
vt 0.054629 0.492510
vt 0.271118 0.139853
vt 0.141133 0.937646
vt 0.147287 0.945486
vt 0.135029 0.937069
vt 0.492428 0.150569
vt 0.518629 0.111866
vt 0.940004 0.487901
vt 0.468074 0.487901
vt 0.134059 0.067808
vt 0.492428 0.139853
s 0
f 112/59/15 111/60/15 110/61/15
f 129/62/16 125/63/16 148/64/16
f 148/64/16 137/65/16 121/66/16
f 115/60/16 116/59/16 114/61/16
f 145/67/17 124/68/17 144/69/17
f 144/69/18 136/70/18 142/71/18
f 122/68/17 145/67/17 144/69/17
f 130/70/18 144/69/18 142/71/18
f 123/63/15 127/62/15 133/64/15
f 149/72/16 152/73/16 128/74/16
f 177/75/19 129/62/19 148/64/19
f 131/65/15 133/64/15 119/66/15
f 135/76/15 140/73/15 127/62/15
f 180/77/20 139/78/20 128/74/20
f 132/78/15 130/70/15 118/79/15
f 151/80/21 143/81/21 150/76/21
f 126/74/15 122/68/15 132/78/15
f 182/82/22 128/74/22 152/73/22
f 176/83/18 148/64/18 121/66/18
f 140/73/15 134/72/15 126/74/15
f 141/84/23 131/65/23 146/85/23
f 143/81/24 123/63/24 141/84/24
f 138/80/25 145/67/25 134/72/25
f 125/63/24 143/81/24 141/84/24
f 143/81/21 138/80/21 135/76/21
f 124/68/16 128/74/16 139/78/16
f 137/65/23 141/84/23 146/85/23
f 183/86/16 188/87/16 187/88/16
f 152/73/16 150/76/16 129/62/16
f 212/89/16 211/90/16 217/91/16
f 200/92/26 198/93/26 202/94/26
f 179/95/23 120/79/23 139/78/23
f 145/67/25 151/80/25 149/72/25
f 136/70/16 139/78/16 120/79/16
f 140/73/22 157/77/22 159/82/22
f 216/96/16 212/89/16 214/97/16
f 126/74/20 156/95/20 157/77/20
f 118/79/23 156/95/23 132/78/23
f 163/98/23 165/87/23 167/99/23
f 133/64/18 153/83/18 119/66/18
f 127/62/19 154/75/19 133/64/19
f 166/100/18 160/86/18 162/101/18
f 127/62/27 159/82/27 158/102/27
f 165/87/15 160/86/15 164/88/15
f 171/93/26 173/92/26 175/94/26
f 174/103/28 168/104/28 170/105/28
f 173/92/15 168/104/15 172/106/15
f 195/107/23 116/59/23 117/61/23
f 188/87/23 186/98/23 190/99/23
f 183/86/18 189/100/18 185/101/18
f 191/104/16 200/92/16 199/106/16
f 181/102/27 152/73/27 129/62/27
f 191/104/28 201/103/28 197/105/28
f 194/107/26 114/59/26 116/61/26
f 192/107/18 115/59/18 114/61/18
f 193/107/28 117/59/28 115/61/28
f 112/59/23 195/107/23 113/61/23
f 113/59/28 193/107/28 111/61/28
f 111/59/18 192/107/18 110/61/18
f 110/59/26 194/107/26 112/61/26
f 214/97/16 215/108/16 216/96/16
f 206/97/15 205/109/15 209/91/15
f 217/91/16 213/109/16 214/97/16
f 212/89/16 217/91/16 214/97/16
f 215/108/16 218/110/16 216/96/16
f 203/90/15 204/89/15 209/91/15
f 204/89/15 208/96/15 207/108/15
f 209/91/15 204/89/15 206/97/15
f 208/96/15 210/110/15 207/108/15
f 207/108/15 206/97/15 204/89/15
f 112/59/15 113/111/15 111/60/15
f 129/62/16 150/76/16 125/63/16
f 148/64/16 125/63/16 137/65/16
f 115/60/16 117/111/16 116/59/16
f 145/67/17 149/72/17 124/68/17
f 144/69/18 124/68/18 136/70/18
f 122/68/17 134/72/17 145/67/17
f 130/70/18 122/68/18 144/69/18
f 123/63/15 135/76/15 127/62/15
f 149/72/16 151/80/16 152/73/16
f 177/75/19 181/102/19 129/62/19
f 131/65/15 123/63/15 133/64/15
f 135/76/15 138/80/15 140/73/15
f 180/77/20 179/95/20 139/78/20
f 132/78/15 122/68/15 130/70/15
f 151/80/21 147/112/21 143/81/21
f 126/74/15 134/72/15 122/68/15
f 182/82/22 180/77/22 128/74/22
f 176/83/18 177/75/18 148/64/18
f 140/73/15 138/80/15 134/72/15
f 141/84/23 123/63/23 131/65/23
f 143/81/24 135/76/24 123/63/24
f 138/80/25 147/112/25 145/67/25
f 125/63/24 150/76/24 143/81/24
f 143/81/21 147/112/21 138/80/21
f 124/68/16 149/72/16 128/74/16
f 137/65/23 125/63/23 141/84/23
f 183/86/16 184/113/16 188/87/16
f 152/73/16 151/80/16 150/76/16
f 200/92/26 196/114/26 198/93/26
f 179/95/23 178/115/23 120/79/23
f 145/67/25 147/112/25 151/80/25
f 136/70/16 124/68/16 139/78/16
f 140/73/22 126/74/22 157/77/22
f 126/74/20 132/78/20 156/95/20
f 118/79/23 155/115/23 156/95/23
f 163/98/23 161/113/23 165/87/23
f 133/64/18 154/75/18 153/83/18
f 127/62/19 158/102/19 154/75/19
f 166/100/18 164/88/18 160/86/18
f 127/62/27 140/73/27 159/82/27
f 165/87/15 161/113/15 160/86/15
f 171/93/26 169/114/26 173/92/26
f 174/103/28 172/106/28 168/104/28
f 173/92/15 169/114/15 168/104/15
f 195/107/23 194/116/23 116/59/23
f 188/87/23 184/113/23 186/98/23
f 183/86/18 187/88/18 189/100/18
f 191/104/16 196/114/16 200/92/16
f 181/102/27 182/82/27 152/73/27
f 191/104/28 199/106/28 201/103/28
f 194/107/26 192/116/26 114/59/26
f 192/107/18 193/116/18 115/59/18
f 193/107/28 195/116/28 117/59/28
f 112/59/23 194/116/23 195/107/23
f 113/59/28 195/116/28 193/107/28
f 111/59/18 193/116/18 192/107/18
f 110/59/26 192/116/26 194/107/26
