# Blender 4.0.0
# www.blender.org
o Vert.002
v -2.636487 3.000000 6.459024
v 13.091448 3.000000 6.459024
v 5.227480 6.273392 6.459024
v -2.636487 3.000000 -6.869516
v 13.091448 3.000000 -6.869516
v 5.227480 6.273392 -6.869516
v 2.650755 3.000000 0.886296
v -2.308646 3.000000 -6.750481
v 2.650755 4.589412 -2.932092
v -11.421926 3.000000 0.886297
v -11.421926 3.000000 -6.750481
v -11.421926 4.589412 -2.932092
v -2.505060 2.684261 6.459024
v 12.960020 2.684261 6.459024
v 5.227480 5.938021 6.459024
v -2.505060 2.684261 -6.869516
v 12.960020 2.684261 -6.869516
v 5.227480 5.938021 -6.869516
v 2.650755 2.684261 0.754869
v -2.308646 2.684261 -6.619054
v 2.650755 4.254041 -2.932092
v -11.421926 2.684261 0.754870
v -11.421926 2.684261 -6.619054
v -11.421926 4.254041 -2.932092
v -4.385586 3.000000 -6.750481
v -4.385586 3.000000 0.886296
v -4.385586 4.589412 -2.932092
v -4.385586 2.684261 -6.619054
v -4.385586 2.684261 0.754870
v -4.385586 4.254041 -2.932092
v -11.421926 3.265325 -6.113068
v -1.422119 2.946308 -6.003581
v -11.421926 2.946308 -6.003581
v -1.422119 3.265325 -6.113068
v -4.385586 2.946308 -6.003581
v -4.385586 3.265325 -6.113068
v 1.295497 4.636696 6.459024
v 1.295497 4.636696 -6.869516
v 1.361210 4.311141 6.459024
v 1.361210 4.311141 -6.869516
v 9.093750 4.311141 -6.869516
v 9.159464 4.636696 -6.869516
v 9.159464 4.636696 6.459024
v 9.093750 4.311141 6.459024
v -1.659514 3.000000 -6.213540
v -11.062546 3.000000 0.349357
v -11.062546 3.000000 -6.213540
v 12.439054 3.000000 -6.213540
v 9.773516 3.000000 5.634688
v -1.984093 3.000000 5.634688
v -1.984093 3.000000 5.634688
v 12.439054 3.000000 -6.213540
v -11.062546 3.000000 -6.213540
v -11.062546 3.000000 0.349357
v -1.659514 3.000000 -6.213540
v -11.062546 4.357734 -2.932091
v -11.062546 3.000000 -2.932091
v 5.227480 6.000000 5.634688
v 5.227480 3.000000 5.634688
v 5.227480 6.000000 -6.213540
v 5.227480 3.000000 -6.213540
v 9.773516 3.000000 2.650378
v 12.439054 3.000000 2.650378
v 9.773516 4.381094 5.634688
v 9.773516 4.381094 2.650378
v 12.439054 3.000000 2.650378
vn 0.3843 0.9232 -0.0000
vn -0.3843 0.9232 -0.0000
vn -0.0000 0.9232 -0.3843
vn -0.0000 0.9232 0.3843
vn -0.3878 -0.9217 -0.0000
vn 0.3878 -0.9217 -0.0000
vn -0.0000 -0.9201 0.3917
vn -0.0000 -0.9201 -0.3917
vn -0.0000 -0.0000 1.0000
vn -0.0000 -0.0000 -1.0000
vn 0.9232 -0.3843 -0.0000
vn -0.9232 -0.3843 -0.0000
vn 0.6329 -0.2513 -0.7323
vn 1.0000 -0.0000 -0.0000
vn -1.0000 -0.0000 -0.0000
vn -0.0000 -0.3843 -0.9232
vn -0.0000 -0.3843 0.9232
vn 0.6023 -0.3068 -0.7370
vn -0.0000 1.0000 -0.0000
vn 0.6155 -0.0000 -0.7881
vn 0.6137 -0.2563 -0.7468
vt -0.439382 0.000000
vt 1.318145 0.500000
vt -0.439382 0.500000
vt 1.439382 0.500989
vt -0.318145 0.000989
vt 1.439382 0.000989
vt 0.500000 0.000000
vt 1.000000 0.083466
vt 0.500000 0.083466
vt 0.500000 0.500000
vt 0.000000 0.000000
vt 0.500000 0.000000
vt 1.318145 0.496042
vt -0.439382 0.496042
vt -0.318145 -0.002969
vt 1.439382 0.493073
vt 1.439382 -0.002969
vt 1.000000 0.082096
vt 0.500000 0.082096
vt 0.500000 0.491794
vt -0.439382 0.000990
vt -0.439382 0.493073
vt -0.439382 -0.002969
vt 1.439382 0.000000
vt 1.439382 0.496042
vt 1.439382 0.500000
vt 1.318145 0.000000
vt -0.318145 0.493073
vt 0.000000 0.000000
vt 0.878763 0.000000
vt 0.878763 0.000000
vt 0.121237 0.000000
vt 1.000000 0.000000
vt 0.289417 0.083466
vt 0.000000 0.491794
vt 0.289417 0.082096
vt 1.000000 0.000000
vt 1.000000 0.491793
vt 1.000000 0.500000
vt 1.000000 0.000000
vt 0.000000 0.491794
vt 0.352413 0.000000
vt 0.352413 0.000000
vt 0.000000 0.500000
vt 1.000000 0.491794
vt 1.000000 0.500000
vt -0.318145 0.000000
vt -0.318145 0.496042
vt -0.318145 0.000000
vt 1.318145 0.000990
vt 1.318145 0.493073
vt 1.318145 0.500990
vt -0.439382 0.500990
vt 1.696398 0.501188
vt 0.000000 0.501188
vt 0.761069 0.501187
vt 0.000000 0.501187
vt 1.540426 0.501187
vt 0.000000 0.501187
vt 1.522139 0.501187
vt 0.761069 0.613229
vt 2.511481 0.615157
vt 2.511481 0.501187
vt 3.316445 0.501188
vt 1.696398 0.748751
vt 1.000101 0.615157
vt 1.000101 0.501188
vt 1.000000 0.501188
vt 0.000000 0.615157
vt -0.318145 0.500989
vt 0.000000 0.500000
vt 0.121237 0.000000
vt -0.318145 0.500000
vt 1.318145 -0.002969
vt 1.540426 0.748751
s 0
f 2/1/1 42/2/1 43/3/1
f 3/4/2 38/5/2 37/6/2
f 25/7/3 31/8/3 36/9/3
f 27/10/4 10/11/4 26/12/4
f 41/13/5 14/1/5 44/14/5
f 40/15/6 15/16/6 39/17/6
f 33/18/7 28/7/7 35/19/7
f 22/11/8 30/20/8 29/12/8
f 43/21/9 15/22/9 44/23/9
f 1/24/9 39/25/9 37/26/9
f 5/27/10 41/13/10 42/2/10
f 38/5/10 18/28/10 40/15/10
f 2/29/11 17/30/11 5/31/11
f 4/32/12 13/33/12 1/33/12
f 34/34/13 21/35/13 32/36/13
f 7/37/14 21/38/14 9/39/14
f 11/40/15 33/18/15 31/8/15
f 10/11/15 24/41/15 22/11/15
f 8/42/16 28/7/16 25/7/16
f 10/11/17 29/12/17 26/12/17
f 26/12/17 19/37/17 7/37/17
f 25/7/16 23/40/16 11/40/16
f 29/12/8 21/38/8 19/37/8
f 35/19/7 20/43/7 32/36/7
f 9/39/4 26/12/4 7/37/4
f 8/42/3 36/9/3 34/34/3
f 34/34/3 27/10/3 9/44/3
f 30/20/7 32/36/7 21/35/7
f 31/8/15 24/45/15 12/46/15
f 8/42/18 32/36/18 20/43/18
f 24/45/7 35/19/7 30/20/7
f 36/9/3 12/46/3 27/10/3
f 4/47/10 40/48/10 16/49/10
f 37/6/9 15/16/9 3/4/9
f 16/49/6 39/25/6 13/24/6
f 37/26/2 4/47/2 1/24/2
f 42/50/10 18/51/10 6/52/10
f 2/1/9 44/14/9 14/1/9
f 18/51/5 44/23/5 15/22/5
f 43/21/1 6/52/1 3/53/1
f 61/54/19 52/55/19 48/55/19
f 57/56/19 53/57/19 47/57/19
f 59/58/19 51/59/19 50/59/19
f 46/60/15 56/61/15 57/56/15
f 64/62/9 59/58/9 49/63/9
f 45/64/10 60/65/10 61/54/10
f 65/66/14 49/55/14 62/67/14
f 63/68/9 65/69/9 62/55/9
f 2/1/1 5/27/1 42/2/1
f 3/4/2 6/70/2 38/5/2
f 25/7/3 11/40/3 31/8/3
f 27/10/4 12/71/4 10/11/4
f 41/13/5 17/27/5 14/1/5
f 40/15/6 18/28/6 15/16/6
f 33/18/7 23/40/7 28/7/7
f 22/11/8 24/41/8 30/20/8
f 43/21/9 3/53/9 15/22/9
f 1/24/9 13/24/9 39/25/9
f 5/27/10 17/27/10 41/13/10
f 38/5/10 6/70/10 18/28/10
f 2/29/11 14/29/11 17/30/11
f 4/32/12 16/72/12 13/33/12
f 34/34/20 9/44/20 21/35/20
f 7/37/14 19/37/14 21/38/14
f 11/40/15 23/40/15 33/18/15
f 10/11/15 12/71/15 24/41/15
f 8/42/16 20/43/16 28/7/16
f 10/11/17 22/11/17 29/12/17
f 26/12/17 29/12/17 19/37/17
f 25/7/16 28/7/16 23/40/16
f 29/12/8 30/20/8 21/38/8
f 35/19/7 28/7/7 20/43/7
f 9/39/4 27/10/4 26/12/4
f 8/42/3 25/7/3 36/9/3
f 34/34/3 36/9/3 27/10/3
f 30/20/7 35/19/7 32/36/7
f 31/8/15 33/18/15 24/45/15
f 8/42/21 34/34/21 32/36/21
f 24/45/7 33/18/7 35/19/7
f 36/9/3 31/8/3 12/46/3
f 4/47/10 38/73/10 40/48/10
f 37/6/9 39/17/9 15/16/9
f 16/49/6 40/48/6 39/25/6
f 37/26/2 38/73/2 4/47/2
f 42/50/10 41/74/10 18/51/10
f 2/1/9 43/3/9 44/14/9
f 18/51/5 41/74/5 44/23/5
f 43/21/1 42/50/1 6/52/1
f 61/54/10 60/65/10 52/55/10
f 57/56/15 56/61/15 53/57/15
f 59/58/9 58/75/9 51/59/9
f 46/60/19 54/60/19 56/61/19
f 64/62/9 58/75/9 59/58/9
f 45/64/19 55/64/19 60/65/19
f 65/66/14 64/69/14 49/55/14
f 63/68/19 66/68/19 65/69/19
